<svg aria-hidden="true" style="position: absolute; width: 0; height: 0; overflow: hidden;" version="1.1" xmlns="http://www.w3.org/2000/svg" xmlns:xlink="http://www.w3.org/1999/xlink">
<defs>
<symbol id="icon-undraw_connected-world_anke" viewBox="0 0 43 32">
<path fill="#f2f2f2" style="fill: var(--color1, #f2f2f2)" d="M39.689 7.779c-4.89-6.804-15.218-9.564-25.377-6.591-5.37 1.572-10.548 4.72-13.114 10.817-4.587 10.899 5.044 14.38 11.342 15.489 3.045 0.536 5.913 1.438 8.534 2.664 4.715 2.207 13.062 4.163 19.355-5.031 4.562-6.664 2.516-12.816-0.741-17.349z"></path>
<path fill="#3f3d56" style="fill: var(--color2, #3f3d56)" d="M11.341 9.125c-0.015-0.117-0.044-0.224-0.085-0.323l0.003 0.008c-0.011-0.039-0.037-0.071-0.072-0.089l-0.001-0c-0.011-0.003-0.024-0.005-0.038-0.005-0.012 0-0.024 0.001-0.035 0.004l0.001-0-0.369 0.056c-0.032 0.002-0.062 0.014-0.085 0.033l0-0c-0.048 0.051-0.001 0.132-0.002 0.202-0.002 0.078-0.071 0.142-0.147 0.163-0.033 0.007-0.071 0.011-0.11 0.011-0.044 0-0.086-0.005-0.127-0.015l0.004 0.001-0.516-0.080c0.157-0.051 0.289-0.141 0.39-0.26l0.001-0.001c0.068-0.081 0.104-0.231 0.006-0.269-0.019-0.005-0.041-0.009-0.064-0.009-0.009 0-0.018 0.001-0.027 0.002l0.001-0c-0.234 0.002-0.418-0.194-0.637-0.276-0.070-0.025-0.15-0.040-0.234-0.040-0.227 0-0.429 0.108-0.558 0.275l-0.001 0.002 0.275 0.013c0.002-0 0.004-0 0.007-0 0.025 0 0.048 0.007 0.067 0.020l-0-0c0.060 0.050-0.015 0.145-0.006 0.222 0.011 0.101 0.145 0.122 0.246 0.133s0.229 0.092 0.18 0.181c-0.507 0.175-1.023-0.341-1.555-0.278-0.135 0.016-0.262 0.069-0.394 0.102-0.804 0.203-1.635-0.339-2.456-0.224-0.205 0.035-0.385 0.084-0.558 0.148l0.022-0.007c-0.112 0.037-0.228 0.076-0.309 0.161s-0.112 0.231-0.035 0.32c-0.044 0.004-0.096 0.006-0.148 0.006-0.172 0-0.338-0.024-0.495-0.069l0.013 0.003c0.109 0.062 0.182 0.177 0.182 0.309 0 0.001 0 0.002 0 0.003v-0c-0.359 0.060-0.681 0.161-0.981 0.302l0.023-0.010c0.060 0.1 0.126 0.186 0.199 0.265l-0.001-0.001-0.419 0.269c0.142 0.036 0.215 0.229 0.132 0.349 0.147-0.065 0.238-0.234 0.395-0.268 0.103-0.022 0.208 0.020 0.305 0.059s0.205 0.078 0.306 0.048 0.175-0.161 0.111-0.244c0.395-0.12 0.85-0.195 1.32-0.207l0.007-0c0.006-0.001 0.013-0.001 0.021-0.001 0.029 0 0.057 0.008 0.081 0.021l-0.001-0c0.059 0.041 0.043 0.128 0.040 0.199s0.052 0.165 0.116 0.133c-0.075 0.065-0.011 0.187 0.061 0.255s0.158 0.162 0.114 0.251c-0.011 0.023-0.031 0.042-0.042 0.065-0.033 0.069 0.019 0.149 0.080 0.195s0.136 0.078 0.178 0.141 0.023 0.174-0.053 0.183l-0.215-0.273c-0.071 0.074-0.123 0.168-0.145 0.272l-0.001 0.004c0.228 0.187 0.263 0.567 0.072 0.791-0.098 0.115-0.237 0.185-0.358 0.274s-0.234 0.217-0.233 0.368c0.001 0.26-0.021 0.502 0.077 0.744 0.21 0.517 0.418 0.944 0.652 1.355l-0.030-0.057c0.062 0.11 0.141 0.231 0.266 0.25q-0.236-0.575-0.426-1.169c0.082 0 0.177 0.007 0.225 0.073 0.040 0.055 0.031 0.13 0.044 0.197 0.017 0.069 0.044 0.13 0.079 0.185l-0.001-0.002 0.752 1.34c0.062 0.111 0.134 0.23 0.253 0.275 0.076 0.029 0.164 0.023 0.235 0.065 0.055 0.032 0.092 0.090 0.148 0.121 0.159 0.086 0.379-0.079 0.527 0.024 0.042 0.030 0.069 0.076 0.108 0.11 0.137 0.118 0.361 0.039 0.519 0.128 0.102 0.057 0.155 0.171 0.209 0.274 0.136 0.259 0.356 0.512 0.647 0.532 0.092 0.006 0.185-0.011 0.275 0.009s0.178 0.098 0.163 0.189c-0.025 0.155 0.052 0.326 0.032 0.482-0.038 0.284-0.441 0.409-0.475 0.693-0.008 0.062 0.004 0.127-0.011 0.188-0.018 0.075-0.074 0.136-0.094 0.21-0.038 0.141 0.063 0.281 0.174 0.376s0.243 0.176 0.303 0.309c0.064 0.14 0.033 0.303 0.053 0.456 0.045 0.333 0.333 0.58 0.629 0.739 0.090 0.049 0.187 0.096 0.246 0.18 0.076 0.11 0.069 0.255 0.094 0.386 0.062 0.322 0.333 0.586 0.341 0.914 0.005 0.233-0.124 0.444-0.201 0.663-0.053 0.15-0.084 0.323-0.084 0.504 0 0.287 0.078 0.556 0.215 0.787l-0.004-0.007c0.058 0.098 0.127 0.19 0.168 0.295 0.073 0.189 0.049 0.404 0.117 0.594 0.089 0.252 0.333 0.461 0.31 0.728 0.111 0.23 0.356 0.344 0.602 0.412l0.442 0.123c0.085 0.024 0.173 0.047 0.259 0.030s0.168-0.089 0.166-0.176c-0.217-0.049-0.44-0.101-0.619-0.233s-0.301-0.367-0.233-0.578c0.031-0.098 0.098-0.211 0.035-0.292-0.036-0.046-0.103-0.058-0.144-0.101-0.064-0.066-0.042-0.177 0.004-0.256s0.113-0.151 0.131-0.241c0.003-0.014 0.004-0.030 0.004-0.046 0-0.091-0.048-0.171-0.121-0.215l-0.001-0.001c0.085-0.033 0.158-0.080 0.219-0.14l-0 0c0.057-0.066 0.084-0.167 0.039-0.241 0.134 0.017 0.293 0.025 0.381-0.077 0.070-0.082 0.066-0.205 0.038-0.309s-0.075-0.206-0.076-0.314c0.081 0.004 0.176 0.006 0.271 0.006 0.232 0 0.46-0.014 0.685-0.041l-0.027 0.003c-0.046-0.153-0.147-0.277-0.279-0.352l-0.003-0.002c0.14-0.024 0.267-0.191 0.311-0.325s0.033-0.281 0.006-0.42c-0.006-0.019-0.009-0.041-0.009-0.063 0-0.017 0.002-0.033 0.005-0.048l-0 0.002c0.016-0.050 0.065-0.081 0.11-0.107l0.693-0.398c0.043-0.022 0.079-0.049 0.111-0.082l0-0c0.073-0.085 0.062-0.214 0.025-0.319s-0.097-0.205-0.111-0.316c-0.043-0.332 0.313-0.57 0.433-0.883 0.047-0.123 0.057-0.256 0.066-0.387 0.010-0.141 0.011-0.304-0.098-0.395-0.104-0.087-0.265-0.068-0.374-0.148-0.099-0.074-0.134-0.218-0.242-0.278-0.099-0.054-0.222-0.020-0.332-0.045-0.193-0.045-0.315-0.268-0.512-0.288-0.111-0.012-0.237 0.043-0.328-0.022-0.080-0.057-0.084-0.172-0.099-0.269-0.056-0.31-0.297-0.551-0.602-0.608l-0.005-0.001c-0.115-0.018-0.24-0.011-0.337-0.074-0.099-0.064-0.144-0.183-0.222-0.272-0.125-0.142-0.322-0.193-0.507-0.236l-0.751-0.177c-0.133-0.031-0.305-0.048-0.377 0.069-0.020 0.041-0.035 0.088-0.044 0.137l-0 0.003c-0.055 0.177-0.216 0.304-0.408 0.307h-0c-0.063-0.106-0.163-0.185-0.281-0.219l-0.003-0.001c-0.076-0.021-0.158-0.024-0.23-0.055-0.108-0.054-0.182-0.164-0.182-0.291 0-0.058 0.015-0.113 0.042-0.16l-0.001 0.002c0.032-0.057 0.052-0.125 0.052-0.197 0-0.112-0.046-0.214-0.12-0.287l-0-0c-0.128-0.115-0.312-0.142-0.484-0.131-0.045-0.098 0.030-0.208 0.111-0.279s0.179-0.141 0.197-0.247c0.028-0.167-0.185-0.294-0.347-0.244s-0.265 0.207-0.333 0.362c-0.039 0.089-0.072 0.182-0.134 0.257s-0.161 0.129-0.255 0.105c-0.133-0.034-0.185-0.192-0.214-0.327-0.040-0.18-0.079-0.363-0.071-0.547s0.070-0.374 0.206-0.498c0.221-0.203 0.561-0.183 0.86-0.151-0.071-0.080-0.053-0.214 0.022-0.289 0.058-0.051 0.134-0.083 0.218-0.083 0.028 0 0.056 0.004 0.082 0.010l-0.002-0.001c0.093 0.020 0.172 0.069 0.23 0.137l0.001 0.001c0.085 0.104 0.109 0.243 0.173 0.361s0.209 0.218 0.327 0.155c0.102-0.054 0.118-0.196 0.093-0.309s-0.079-0.223-0.070-0.338c0.018-0.22 0.246-0.352 0.447-0.443s0.432-0.213 0.464-0.431c0.001-0.045 0.010-0.088 0.025-0.128l-0.001 0.003c0.023-0.036 0.053-0.064 0.089-0.084l0.001-0.001c0.587-0.388 1.185-0.781 1.856-0.993 0.035-0.011 0.039 0.001 0.075-0.007 0.050-0.029 0.017-0.108-0.031-0.141s-0.112-0.057-0.124-0.113c-0.009-0.041 0.015-0.082 0.022-0.124 0.016-0.103-0.107-0.198-0.203-0.157-0.054-0.071 0.053-0.154 0.139-0.178 0.233-0.067 0.504-0.113 0.783-0.129l0.010-0c0.007-0.001 0.015-0.002 0.022-0.002 0.025 0 0.048 0.006 0.069 0.018l-0.001-0c0.045 0.031 0.039 0.103 0.007 0.147s-0.082 0.073-0.121 0.11c-0.062 0.060-0.1 0.144-0.1 0.237 0 0.034 0.005 0.067 0.015 0.098l-0.001-0.002c0.14 0.071 0.292 0.145 0.448 0.12s0.293-0.199 0.22-0.339c-0.068-0.13-0.272-0.159-0.307-0.301-0.041-0.166 0.194-0.314 0.141-0.477-0.023-0.071-0.094-0.113-0.149-0.165-0.083-0.081-0.134-0.194-0.134-0.32 0-0.064 0.013-0.125 0.037-0.179l-0.001 0.003c-0.029 0.005-0.063 0.009-0.098 0.009-0.155 0-0.295-0.062-0.397-0.164l0 0c-0.118-0.12-0.213-0.308-0.381-0.303-0.154 0.005-0.287 0.185-0.432 0.13-0.036-0.014-0.073-0.041-0.107-0.025-0.022 0.015-0.037 0.039-0.040 0.066l-0 0c-0.037 0.175 0.026 0.375-0.069 0.527-0.104 0.165-0.345 0.188-0.471 0.336-0.068 0.081-0.095 0.189-0.158 0.275s-0.196 0.139-0.272 0.065c0.024-0.048 0.038-0.104 0.038-0.164 0-0.118-0.054-0.223-0.139-0.291l-0.001-0.001c-0.065-0.043-0.139-0.080-0.218-0.107l-0.007-0.002c-0.096-0.041-0.179-0.088-0.255-0.143l0.004 0.003c-0.039-0.024-0.071-0.057-0.092-0.097l-0.001-0.001c-0.007-0.021-0.011-0.045-0.011-0.069 0-0.031 0.006-0.061 0.018-0.088l-0.001 0.001c0.079-0.222 0.271-0.384 0.504-0.42l0.004-0c0.101-0.014 0.217-0.009 0.284-0.085 0.035-0.041 0.054-0.102 0.105-0.118 0.009-0.002 0.020-0.003 0.030-0.003 0.024 0 0.047 0.005 0.067 0.015l-0.001-0 0.375 0.132c0.032 0.015 0.069 0.023 0.108 0.023 0.009 0 0.018-0 0.026-0.001l-0.001 0c0.045-0.006 0.079-0.044 0.079-0.090 0-0.002-0-0.004-0-0.006v0c-0.012-0.062-0.108-0.092-0.099-0.155 0.005-0.021 0.016-0.039 0.031-0.053l0-0c0.245-0.261 0.592-0.423 0.977-0.423 0.030 0 0.060 0.001 0.090 0.003l-0.004-0c0.047 0.078-0.028 0.17-0.090 0.236s-0.112 0.185-0.037 0.236c0.027 0.014 0.060 0.023 0.094 0.023 0.002 0 0.004-0 0.006-0h-0c0.099 0.014 0.189 0.042 0.271 0.083l-0.005-0.002q0.194 0.085 0.381 0.185c-0.011-0.082-0.022-0.169 0.010-0.246s0.12-0.137 0.197-0.107c0.075 0.029 0.113 0.128 0.192 0.137 0.106 0.012 0.148-0.144 0.103-0.241s-0.132-0.178-0.139-0.285c-0.005-0.072 0.022-0.161-0.035-0.204-0.019-0.012-0.042-0.021-0.067-0.024l-0.001-0-1.431-0.263c-0.085-0.016-0.208-0.004-0.212 0.083-0.002 0.048 0.041 0.096 0.022 0.14-0.020 0.047-0.087 0.043-0.136 0.060-0.076 0.026-0.113 0.116-0.106 0.195 0.014 0.083 0.046 0.158 0.091 0.222l-0.001-0.002c-0.093-0.039-0.234-0.046-0.327-0.085z"></path>
<path fill="#3f3d56" style="fill: var(--color2, #3f3d56)" d="M10.199 7.91c-0.043-0.015-0.094-0.023-0.146-0.023-0.147 0-0.278 0.068-0.363 0.175l-0.001 0.001c-0.024 0.031-0.043 0.074-0.024 0.107 0.028 0.048 0.1 0.029 0.153 0.012 0.039-0.014 0.083-0.023 0.13-0.023 0.040 0 0.079 0.006 0.115 0.017l-0.003-0.001c0.050 0.017 0.095 0.047 0.145 0.064 0.017 0.007 0.036 0.011 0.056 0.011 0.035 0 0.067-0.012 0.093-0.033l-0 0c0.034-0.035 0.037-0.090 0.037-0.139 0.001-0.005 0.001-0.010 0.001-0.016 0-0.029-0.011-0.056-0.030-0.076l0 0c-0.019-0.011-0.041-0.018-0.065-0.019h-0c-0.054-0.010-0.099-0.038-0.132-0.077l-0-0z"></path>
<path fill="#3f3d56" style="fill: var(--color2, #3f3d56)" d="M10.715 7.766c-0.002-0-0.004-0-0.006-0-0.065 0-0.118 0.053-0.118 0.118 0 0.018 0.004 0.034 0.011 0.049l-0-0.001c0.038 0.011 0.081 0.017 0.126 0.017 0.023 0 0.045-0.002 0.067-0.005l-0.003 0c0.065-0.010 0.117-0.059 0.133-0.121l0-0.001c-0.017 0.003-0.035 0.005-0.055 0.005-0.060 0-0.116-0.017-0.163-0.047l0.001 0.001z"></path>
<path fill="#3f3d56" style="fill: var(--color2, #3f3d56)" d="M12.446 7.527c-0.185 0.040-0.348 0.097-0.502 0.172l0.013-0.006c0.139 0.054 0.235 0.187 0.235 0.343 0 0.009-0 0.018-0.001 0.027l0-0.001c-0.003 0.012-0.004 0.027-0.004 0.041 0 0.018 0.002 0.035 0.007 0.051l-0-0.001c0.018 0.043 0.070 0.060 0.116 0.071 0.066 0.021 0.143 0.033 0.222 0.033 0.011 0 0.022-0 0.033-0.001l-0.002 0c0.090-0.005 0.167-0.055 0.209-0.127l0.001-0.001c0.015-0.041 0.029-0.075 0.046-0.108l-0.002 0.005c0.11-0.167 0.435 0.035 0.553-0.126 0.041-0.057 0.038-0.142 0.092-0.187 0.027-0.019 0.059-0.032 0.093-0.036l0.001-0c0.197-0.042 0.442-0.078 0.69-0.1l0.025-0.002c0.114-0.010 0.262-0.051 0.263-0.165-0.115-0.024-0.247-0.037-0.382-0.037-0.322 0-0.625 0.077-0.894 0.213l0.011-0.005c-0.141 0.071-0.327 0.219-0.463 0.126-0.051-0.035-0.048-0.129-0.118-0.169-0.072-0.040-0.166-0.024-0.242-0.008z"></path>
<path fill="#3f3d56" style="fill: var(--color2, #3f3d56)" d="M13.848 7.789l0.201 0.039c-0.003-0-0.007-0-0.012-0-0.144 0-0.261 0.117-0.261 0.261 0 0.008 0 0.015 0.001 0.023l-0-0.001c0.188 0.063 0.394 0.002 0.593 0.010s0.43 0.15 0.396 0.346c-0.010 0.059-0.044 0.118-0.027 0.176 0.012 0.040 0.048 0.069 0.068 0.106 0.042 0.077 0.008 0.175-0.044 0.245s-0.124 0.126-0.17 0.201c-0.115 0.185-0.050 0.425 0.019 0.633 0.021 0.082 0.058 0.154 0.108 0.215l-0.001-0.001c0.102 0.108 0.267 0.117 0.415 0.12 0.108 0.002 0.231-0.004 0.3-0.087 0.089-0.109 0.027-0.279 0.085-0.407 0.053-0.116 0.189-0.166 0.312-0.202 0.225-0.065 0.455-0.12 0.667-0.218 0.264-0.122 0.511-0.311 0.802-0.327 0.081-0.004 0.165 0.005 0.244-0.017s0.153-0.090 0.147-0.172c-0.005-0.070-0.064-0.121-0.11-0.173s-0.082-0.133-0.040-0.189l0.761-0.142c-0.054-0.147-0.096-0.341 0.028-0.437 0.045-0.035 0.105-0.048 0.143-0.090 0.065-0.071 0.032-0.194-0.043-0.254s-0.176-0.075-0.272-0.083c-0.334-0.028-0.67-0.009-1.004 0.009q-0.981 0.054-1.962 0.108c-0.132 0.007-0.284-0.004-0.404 0.041-0.102 0.038-0.175 0.108-0.292 0.132-0.216 0.045-0.453 0.015-0.649 0.136z"></path>
<path fill="#3f3d56" style="fill: var(--color2, #3f3d56)" d="M17.454 9.38c-0.004-0.001-0.008-0.001-0.013-0.001-0.017 0-0.033 0.005-0.046 0.014l0-0c-0.011 0.012-0.018 0.028-0.019 0.045v0c-0.003 0.015-0.005 0.033-0.005 0.052 0 0.060 0.018 0.116 0.049 0.163l-0.001-0.001c0.038 0.056 0.102 0.093 0.174 0.093 0.006 0 0.012-0 0.019-0.001l-0.001 0c0.091-0.012 0.157-0.089 0.241-0.127 0.128-0.058 0.674-0.149 0.297-0.352-0.13-0.070-0.214-0.008-0.317 0.038-0.095 0.050-0.208 0.079-0.328 0.079-0.018 0-0.035-0.001-0.052-0.002l0.002 0z"></path>
<path fill="#3f3d56" style="fill: var(--color2, #3f3d56)" d="M20.759 7.674c-0.045 0.019-0.081 0.050-0.104 0.090l-0.001 0.001c-0.007 0.012-0.011 0.027-0.011 0.043 0 0.034 0.018 0.063 0.045 0.079l0 0c0.014 0.005 0.030 0.008 0.047 0.008 0.002 0 0.003-0 0.005-0h-0l0.179 0.005c0.076 0.002 0.171 0.018 0.192 0.092 0.015 0.054-0.019 0.124 0.022 0.163 0.017 0.013 0.038 0.022 0.061 0.024l0 0c0.031 0.008 0.067 0.013 0.103 0.013 0.027 0 0.054-0.003 0.080-0.008l-0.003 0c0.13-0.035 0.062-0.114 0.103-0.185 0.063-0.108 0.052-0.043 0.163-0.105 0.082-0.046 0.187-0.129 0.119-0.246-0.119-0.203-0.825-0.063-1 0.025z"></path>
<path fill="#3f3d56" style="fill: var(--color2, #3f3d56)" d="M24.294 7.571l-0.104 0.014c-0.235 0.031-0.47 0.063-0.696 0.133 0.089 0.036 0.192 0.063 0.3 0.074l0.005 0c0.062 0.003 0.121 0.012 0.177 0.026l-0.006-0.001c0.1 0.030 0.2 0.106 0.297 0.067 0.060-0.024 0.079-0.087 0.129-0.12 0.034-0.023 0.164-0.060 0.178-0.083 0.117-0.186-0.189-0.123-0.279-0.111z"></path>
<path fill="#3f3d56" style="fill: var(--color2, #3f3d56)" d="M24.751 8.044c-0.146 0.082-0.272 0.175-0.385 0.282l0.001-0.001c-0.049 0.046-0.099 0.103-0.094 0.17 0.006 0.089 0.101 0.141 0.183 0.175l0.332 0.141c0.040-0.057 0.003-0.135-0.038-0.191s-0.091-0.12-0.073-0.188c0.021-0.077 0.115-0.103 0.193-0.116 0.128-0.022 0.473-0.020 0.431-0.226-0.049-0.243-0.422-0.118-0.55-0.046z"></path>
<path fill="#3f3d56" style="fill: var(--color2, #3f3d56)" d="M24.684 21.779c-0.032 0.092-0.035 0.2 0.020 0.28 0.061 0.090 0.184 0.123 0.291 0.1 0.109-0.030 0.201-0.091 0.269-0.173l0.001-0.001c0.061-0.068 0.113-0.147 0.153-0.232l0.002-0.006c0.051-0.122 0.091-0.263 0.114-0.411l0.001-0.010 0.103-0.542c0.023-0.121 0.022-0.493-0.2-0.372-0.061 0.033-0.202 0.294-0.265 0.368-0.115 0.133-0.13 0.263-0.191 0.424-0.076 0.202-0.228 0.371-0.298 0.574z"></path>
<path fill="#3f3d56" style="fill: var(--color2, #3f3d56)" d="M36.444 24.553c-0.083-0.033-0.153-0.066-0.219-0.105l0.008 0.004c-0.065 0.174-0.104 0.374-0.107 0.583v0.001l0.499-0.282c0.075-0.042 0.16-0.101 0.158-0.188 0-0.001 0-0.002 0-0.004 0-0.021-0.011-0.040-0.027-0.050l-0-0c-0.007-0.003-0.016-0.005-0.025-0.005-0.004 0-0.007 0-0.010 0.001l0-0c-0.074 0.006-0.141 0.043-0.211 0.068s-0.151 0.039-0.215 0.001z"></path>
<path fill="#3f3d56" style="fill: var(--color2, #3f3d56)" d="M39.074 24.72c-0.062 0.017-0.116 0.037-0.167 0.060l0.007-0.003c-0.114 0.058-0.192 0.169-0.295 0.245-0.099 0.073-0.217 0.114-0.334 0.153-0.034 0.030-0.019 0.091 0.019 0.118 0.033 0.019 0.072 0.030 0.114 0.030 0.006 0 0.012-0 0.018-0.001l-0.001 0c0.121 0.003 0.248 0.004 0.354-0.055 0.063-0.041 0.117-0.084 0.167-0.133l-0 0c0.124-0.103 0.273-0.172 0.42-0.237 0.056-0.022 0.105-0.051 0.147-0.088l-0.001 0c0.093-0.091 0.099-0.232-0.034-0.263-0.108-0.025-0.312 0.138-0.415 0.172z"></path>
<path fill="#3f3d56" style="fill: var(--color2, #3f3d56)" d="M40.236 23.961c0.001-0.012 0.002-0.026 0.002-0.040 0-0.118-0.050-0.225-0.129-0.301l-0-0c-0.001 0.125-0.005 0.259-0.076 0.363-0.050 0.074-0.129 0.124-0.184 0.194s-0.080 0.182-0.015 0.244c0.039 0.030 0.089 0.049 0.143 0.049h0c0.129 0.015 0.278 0.024 0.368-0.069 0.049-0.051 0.073-0.126 0.133-0.163 0.023-0.010 0.043-0.024 0.058-0.042l0-0c0.025-0.039-0.015-0.091-0.059-0.106s-0.093-0.008-0.138-0.021-0.086-0.064-0.063-0.104z"></path>
<path fill="#3f3d56" style="fill: var(--color2, #3f3d56)" d="M38.17 19.36c-0.041 0.010-0.088 0.016-0.137 0.016-0.025 0-0.049-0.002-0.073-0.005l0.003 0c-0.115-0.021-0.204-0.107-0.296-0.178-0.21-0.161-0.474-0.26-0.762-0.267l-0.001-0c-0.251-0.005-0.505 0.063-0.752 0.016 0.016 0.090 0.093 0.157 0.175 0.197s0.172 0.060 0.255 0.099c0.132 0.064 0.235 0.171 0.293 0.302l0.002 0.004c0.026 0.062 0.043 0.129 0.083 0.183 0.082 0.11 0.238 0.135 0.375 0.126 0.179-0.012 0.366-0.063 0.532 0.003 0.127 0.051 0.218 0.162 0.325 0.249s0.256 0.151 0.378 0.088c-0.253-0.084-0.433-0.318-0.433-0.595 0-0.002 0-0.005 0-0.007v0c0.12 0.011 0.465 0.007 0.446-0.197-0.016-0.172-0.31-0.056-0.413-0.037z"></path>
<path fill="#3f3d56" style="fill: var(--color2, #3f3d56)" d="M36.604 20.763c0.021-0.117 0.138-0.22 0.101-0.332-0.025-0.078-0.116-0.117-0.197-0.119s-0.162 0.023-0.244 0.025c-0.019-0.001-0.041-0.002-0.063-0.002-0.034 0-0.068 0.001-0.101 0.004l0.004-0c-0.163 0.027-0.263 0.197-0.416 0.258-0.093 0.037-0.198 0.030-0.295 0.055-0.22 0.058-0.359 0.266-0.513 0.433-0.243 0.263-0.559 0.454-0.917 0.54l-0.013 0.003c-0.125 0.029-0.26 0.047-0.359 0.129-0.132 0.108-0.164 0.292-0.193 0.46-0.092 0.517-0.22 0.972-0.387 1.409l0.018-0.052 0.523 0.067c0.099 0.013 0.202 0.025 0.298-0.004 0.075-0.029 0.139-0.064 0.199-0.106l-0.003 0.002c0.219-0.138 0.477-0.235 0.754-0.275l0.010-0.001c0.137-0.019 0.28-0.022 0.409 0.029s0.239 0.166 0.249 0.304c0.029-0.009 0.061-0.015 0.095-0.015 0.088 0 0.168 0.035 0.225 0.093l-0-0c0.079 0.081 0.134 0.186 0.153 0.303l0 0.003c0.014 0.071 0.028 0.157 0.094 0.187 0.054 0.024 0.116-0.002 0.175-0.007 0.201-0.016 0.368 0.218 0.565 0.178 0.212-0.043 0.264-0.36 0.47-0.424 0.119-0.037 0.285 0.008 0.342-0.102 0.050-0.097-0.050-0.21-0.040-0.318 0.013-0.134 0.171-0.191 0.293-0.248 0.42-0.197 0.62-0.763 0.416-1.181-0.121-0.247-0.358-0.442-0.402-0.714-0.034-0.209 0.049-0.453-0.085-0.617-0.068-0.084-0.183-0.13-0.223-0.23-0.025-0.063-0.015-0.134-0.029-0.201s-0.072-0.136-0.137-0.119c-0.19 0.050-0.251 0.638-0.353 0.781-0.155 0.217-0.473 0.074-0.424-0.193z"></path>
<path fill="#3f3d56" style="fill: var(--color2, #3f3d56)" d="M33.086 19.582c-0.065-0.018-0.136-0.036-0.198-0.010s-0.099 0.118-0.049 0.163c0.391-0.015 0.785-0.030 1.173 0.023 0.447 0.061 0.889 0.213 1.339 0.168-0.208-0.065-0.471-0.128-0.74-0.175l-0.041-0.006-0.44-0.084c-0.097-0.022-0.219-0.041-0.342-0.054l-0.015-0.001c-0.251-0.021-0.441 0.046-0.687-0.024z"></path>
<path fill="#3f3d56" style="fill: var(--color2, #3f3d56)" d="M33.477 18.219c-0.032-0.003-0.073-0.005-0.090 0.023-0.016 0.027 0.002 0.062-0.006 0.092-0.012 0.041-0.065 0.051-0.108 0.046s-0.088-0.019-0.125 0.001c-0.028 0.019-0.046 0.051-0.046 0.088 0 0.012 0.002 0.023 0.005 0.034l-0-0.001c0.016 0.045 0.041 0.084 0.072 0.115l-0-0c0.056 0.070 0.118 0.132 0.185 0.187l0.002 0.002c0.135 0.099 0.317 0.147 0.401 0.291 0.012 0.029 0.031 0.053 0.053 0.072l0 0c0.041 0.026 0.094 0.006 0.138-0.014l0.154-0.070c0.029-0.010 0.053-0.027 0.072-0.049l0-0c0.035-0.048 0.014-0.115-0.016-0.166s-0.067-0.104-0.061-0.163c0.011-0.105 0.146-0.145 0.201-0.235s0.020-0.207 0.026-0.313c0.008-0.124 0.085-0.285-0.040-0.378-0.107-0.079-0.208-0.006-0.285 0.081-0.161 0.183-0.238 0.382-0.534 0.357z"></path>
<path fill="#3f3d56" style="fill: var(--color2, #3f3d56)" d="M34.409 16.366c0.052 0.1 0.162 0.16 0.219 0.258 0.062 0.106 0.055 0.243 0.122 0.345 0.069 0.105 0.208 0.161 0.246 0.281 0.042 0.131-0.054 0.29 0.023 0.404 0.031 0.041 0.080 0.067 0.135 0.067 0.044 0 0.084-0.017 0.114-0.044l-0 0c0.030-0.032 0.048-0.076 0.048-0.123 0-0.051-0.021-0.098-0.056-0.131l-0-0c-0.045-0.041-0.11-0.059-0.148-0.107-0.019-0.026-0.032-0.058-0.038-0.092l-0-0.001c-0.008-0.038-0.013-0.082-0.013-0.127 0-0.059 0.008-0.116 0.024-0.17l-0.001 0.004c0.006-0.015 0.010-0.032 0.010-0.050 0-0.009-0.001-0.018-0.003-0.027l0 0.001c-0.017-0.049-0.084-0.053-0.131-0.076-0.107-0.052-0.104-0.202-0.085-0.32-0.012 0.078-0.29-0.055-0.319-0.099-0.058-0.088-0.026-0.257-0.038-0.354-0.125 0.060-0.173 0.238-0.109 0.361z"></path>
<path fill="#3f3d56" style="fill: var(--color2, #3f3d56)" d="M31.61 17.91c-0.051-0.057-0.128-0.117-0.197-0.083-0.052 0.026-0.067 0.099-0.046 0.154 0.026 0.054 0.064 0.099 0.111 0.133l0.001 0.001c0.143 0.118 0.297 0.225 0.422 0.362 0.224 0.246 0.342 0.577 0.585 0.804 0.048 0.051 0.111 0.087 0.182 0.099l0.002 0c0.071 0.007 0.15-0.039 0.159-0.109 0.007-0.058-0.034-0.11-0.074-0.154-0.094-0.103-0.198-0.197-0.287-0.305-0.040-0.040-0.067-0.093-0.073-0.152l-0-0.001c-0-0.058 0.052-0.118 0.108-0.104-0.068-0.017-0.119-0.131-0.219-0.152-0.084-0.018-0.104 0.034-0.203-0.009-0.19-0.081-0.338-0.335-0.471-0.484z"></path>
<path fill="#3f3d56" style="fill: var(--color2, #3f3d56)" d="M36.067 12.321c-0.066-0.020-0.119-0.039-0.17-0.061l0.010 0.004c-0.141-0.042-0.327 0.061-0.308 0.207 0.012 0.097 0.103 0.162 0.152 0.246 0.074 0.125 0.054 0.283 0.015 0.422-0.010 0.046-0.029 0.086-0.054 0.121l0.001-0.001c-0.035 0.037-0.077 0.068-0.124 0.090l-0.002 0.001c-0.194 0.11-0.358 0.25-0.491 0.416l-0.003 0.003c-0.014 0.015-0.025 0.034-0.030 0.055l-0 0.001c-0.007 0.049 0.043 0.085 0.071 0.126 0.062 0.091 0.017 0.214 0.023 0.324-0 0.002-0 0.004-0 0.006 0 0.031 0.015 0.058 0.038 0.075l0 0c0.037 0.019 0.082-0.013 0.102-0.050 0.067-0.122 0.017-0.318 0.143-0.377 0.024-0.011 0.053-0.016 0.069-0.037 0.025-0.033 0.001-0.083 0.014-0.123 0.019-0.060 0.101-0.063 0.164-0.060 0.012 0.001 0.025 0.001 0.039 0.001 0.1 0 0.197-0.016 0.287-0.045l-0.007 0.002c0.042-0.010 0.078-0.032 0.106-0.061l0-0c0.038-0.047 0.034-0.114 0.027-0.174-0.041-0.318-0.14-0.605-0.285-0.863l0.006 0.012c0.111 0.014 0.232 0.026 0.328-0.031 0.054-0.032 0.118-0.129 0.091-0.195-0.042-0.104-0.118-0.017-0.212-0.034z"></path>
<path fill="#3f3d56" style="fill: var(--color2, #3f3d56)" d="M21.83 13.965c0.013 0.071 0.026 0.146 0.003 0.215s-0.097 0.126-0.166 0.105c-0.054-0.016-0.085-0.070-0.123-0.112-0.213-0.23-0.692-0.097-0.824-0.381-0.054-0.116-0.017-0.255-0.054-0.377-0.045-0.136-0.171-0.232-0.319-0.232-0.007 0-0.015 0-0.022 0.001l0.001-0c-0.073 0.011-0.139 0.031-0.2 0.060l0.004-0.002c-0.378 0.156-0.816 0.27-1.274 0.322l-0.023 0.002c-0.091 0.006-0.176 0.022-0.257 0.047l0.008-0.002c-0.183 0.066-0.307 0.236-0.396 0.408s-0.154 0.36-0.273 0.513c-0.125 0.161-0.3 0.274-0.464 0.396-0.063 0.041-0.115 0.095-0.152 0.158l-0.001 0.002c-0.035 0.073-0.033 0.157-0.031 0.238l0.033 0.983c0.004 0.126 0.010 0.257 0.066 0.37 0.071 0.141 0.21 0.234 0.307 0.359 0.091 0.117 0.146 0.267 0.146 0.429 0 0.007-0 0.014-0 0.021l0-0.001c-0.002 0.065-0.009 0.142 0.042 0.183 0.028 0.019 0.063 0.030 0.101 0.030 0.001 0 0.002 0 0.003-0h-0l1.33 0.109c0.234 0.019 0.493 0.051 0.646 0.229 0.072 0.084 0.13 0.205 0.24 0.214 0.047 0.004 0.093-0.016 0.141-0.019 0.119-0.009 0.224 0.081 0.291 0.181 0.083 0.124 0.132 0.277 0.132 0.442 0 0.026-0.001 0.052-0.004 0.077l0-0.003c-0.011 0.114-0.046 0.225-0.054 0.339-0.029 0.435 0.339 0.812 0.347 1.247 0.004 0.256-0.117 0.495-0.236 0.723 0.191 0.29 0.035 0.676 0.111 1.015 0.072 0.321 0.34 0.573 0.407 0.896 0.031 0.148 0.032 0.329 0.163 0.406 0.047 0.024 0.103 0.037 0.162 0.037 0.008 0 0.015-0 0.023-0.001l-0.001 0c0.009 0 0.019 0 0.029 0 0.392 0 0.762-0.093 1.090-0.258l-0.014 0.006c0.161-0.080 0.328-0.199 0.356-0.377 0.023-0.143-0.050-0.303 0.024-0.428 0.087-0.147 0.31-0.135 0.438-0.248 0.208-0.183 0.046-0.533 0.13-0.797 0.076-0.237 0.336-0.364 0.466-0.577 0.048-0.085 0.085-0.183 0.107-0.287l0.001-0.007c0.055-0.218 0.095-0.474 0.11-0.737l0-0.011c0.004-0.166 0.016-0.325 0.036-0.481l-0.002 0.022c0.139-0.865 0.995-1.445 1.273-2.276 0.027-0.079 0.039-0.185-0.032-0.23-0.025-0.012-0.055-0.020-0.087-0.020-0.017 0-0.033 0.002-0.049 0.006l0.001-0-0.613 0.077c-0.076 0.010-0.157 0.019-0.227-0.013s-0.12-0.12-0.083-0.187c0.104-0.189-0.11-0.427-0.205-0.62-0.28-0.564-0.583-1.049-0.927-1.5l0.016 0.022c-0.022-0.023-0.036-0.053-0.040-0.086l-0-0.001 0.174 0.006c-0.059-0.211-0.156-0.441-0.36-0.518-0.115-0.043-0.243-0.028-0.366-0.022-0.352 0.019-0.73-0.034-1.079-0.088z"></path>
<path fill="#3f3d56" style="fill: var(--color2, #3f3d56)" d="M22.91 9.217c0.092 0.098 0.196 0.202 0.329 0.219 0.236 0.030 0.405-0.214 0.513-0.425 0.008 0.108 0.098 0.193 0.207 0.193 0.003 0 0.007-0 0.010-0l-0 0c0.062-0.011 0.117-0.033 0.165-0.065l-0.002 0.001c0.44-0.245 0.964-0.39 1.521-0.394h0.001c-0.001-0.006-0.001-0.013-0.001-0.021 0-0.077 0.054-0.142 0.126-0.16l0.001-0c0.108-0.021 0.206 0.072 0.258 0.169s0.085 0.21 0.168 0.283 0.244 0.070 0.276-0.036c0.031-0.101-0.074-0.187-0.161-0.247s-0.18-0.17-0.121-0.258c0.447-0.099 0.897-0.198 1.355-0.218 0.006 0 0.013 0 0.020 0 0.075 0 0.147-0.015 0.212-0.041l-0.004 0.001c0.070-0.034 0.125-0.112 0.106-0.187-0.035 0.009-0.076 0.014-0.118 0.014-0.173 0-0.326-0.085-0.42-0.215l-0.001-0.002c0.635-0.052 1.31-0.097 1.873 0.202 0.068 0.145-0.277 0.266-0.185 0.396 0.029 0.042 0.088 0.047 0.139 0.048 0.391 0.007 0.784 0.014 1.171-0.045 0.141-0.022 0.284-0.052 0.426-0.035 0.236 0.029 0.438 0.187 0.671 0.238 0.095 0.021 0.201 0.022 0.28-0.033s0.114-0.18 0.049-0.252c0.219-0.214 0.582-0.161 0.871-0.059s0.562 0.268 0.868 0.291c0.219 0.016 0.441-0.043 0.658-0.005 0.136 0.024 0.263 0.084 0.396 0.121 0.252 0.070 0.518 0.056 0.779 0.059 0.703 0.010 1.369 0.151 1.981 0.399l-0.036-0.013c0.084 0.028 0.156 0.072 0.216 0.128l-0-0c0.058 0.062 0.087 0.158 0.048 0.233l-0.64-0.093c0.060 0.119 0.216 0.139 0.343 0.18s0.258 0.181 0.182 0.29c-0.137-0.044-0.262 0.094-0.331 0.22s-0.154 0.277-0.298 0.285c-0.129 0.007-0.285-0.103-0.368-0.005 0.11 0.138 0.209 0.293 0.289 0.458l0.007 0.015c0.083 0.173 0.142 0.39 0.030 0.546-0.018 0.027-0.044 0.048-0.075 0.058l-0.001 0c-0.092 0.023-0.151-0.089-0.217-0.157-0.083-0.086-0.208-0.11-0.32-0.15s-0.23-0.119-0.239-0.238c-0.005-0.074 0.034-0.142 0.062-0.211 0.040-0.093 0.063-0.201 0.063-0.314 0-0.018-0.001-0.035-0.002-0.052l0 0.002c-0.006-0.1-0.034-0.204-0.106-0.274s-0.196-0.092-0.273-0.028c-0.036 0.030-0.065 0.078-0.112 0.080-0.083 0.003-0.146-0.141-0.213-0.092 0.002 0.010 0.002 0.022 0.002 0.033 0 0.044-0.012 0.084-0.034 0.119l0.001-0.001c-0.198 0.173-0.503 0.1-0.759 0.161-0.132 0.038-0.247 0.090-0.353 0.155l0.006-0.004c-0.041 0.018-0.075 0.046-0.099 0.082l-0.001 0.001c-0.032 0.062 0.003 0.142 0.060 0.183 0.056 0.035 0.123 0.059 0.194 0.067l0.002 0c0.312 0.059 0.628 0.151 0.875 0.351s0.408 0.532 0.33 0.839l-0.615-0.588q0.035 0.37 0.040 0.742c0.001 0.008 0.001 0.018 0.001 0.027 0 0.041-0.008 0.081-0.021 0.118l0.001-0.002c-0.044 0.097-0.163 0.129-0.267 0.151-0.097 0.019-0.17 0.104-0.17 0.205 0 0.022 0.004 0.044 0.010 0.064l-0-0.001c0.037 0.121 0.129 0.215 0.214 0.308s0.168 0.2 0.179 0.326-0.084 0.267-0.21 0.259c-0.095-0.007-0.166-0.092-0.207-0.179s-0.065-0.183-0.126-0.257c-0.185-0.223-0.601-0.127-0.767-0.365-0.058 0.066-0.094 0.153-0.094 0.248 0 0.039 0.006 0.076 0.017 0.112l-0.001-0.003c0.077-0.048 0.183-0.003 0.241 0.067s0.085 0.16 0.131 0.239c0.061 0.106 0.159 0.201 0.168 0.323-0.001 0.015-0.001 0.034-0.001 0.052 0 0.031 0.001 0.061 0.004 0.091l-0-0.004c0.015 0.074 0.078 0.128 0.121 0.19 0.101 0.144 0.096 0.343 0.031 0.506s-0.182 0.301-0.299 0.433c-0.203 0.232-0.41 0.462-0.65 0.655-0.069 0.055-0.142 0.109-0.184 0.186s-0.045 0.185 0.021 0.243c-0.047 0.002-0.131 0.025-0.178 0.028-0.010-0.108-0.016-0.234-0.016-0.362 0-0.072 0.002-0.144 0.005-0.215l-0 0.010c-0.185-0.089-0.385 0.149-0.361 0.354s0.172 0.368 0.277 0.545c0.077 0.129 0.134 0.28 0.108 0.428s-0.158 0.285-0.308 0.272c-0.238-0.021-0.338-0.363-0.574-0.402-0.007-0.002-0.014-0.003-0.022-0.003-0.015 0-0.028 0.003-0.041 0.009l0.001-0c-0.035 0.019-0.041 0.066-0.043 0.106-0.010 0.196-0.018 0.399 0.058 0.58 0.112 0.264 0.401 0.486 0.34 0.766-0.327-0.152-0.496-0.518-0.573-0.87s-0.090-0.721-0.228-1.053c-0.105 0.134-0.325 0.023-0.421-0.118-0.091-0.134-0.147-0.288-0.235-0.424s-0.223-0.257-0.385-0.264c-0.169-0.008-0.316 0.108-0.445 0.218-0.106 0.090-0.215 0.184-0.277 0.309-0.090 0.182-0.067 0.396-0.071 0.599-0.005 0.219-0.051 0.451-0.201 0.611s-0.425 0.216-0.59 0.072c-0.086-0.076-0.128-0.188-0.165-0.297-0.151-0.418-0.305-0.951-0.428-1.496l-0.018-0.097c-0.028 0.123-0.136 0.282-0.239 0.209-0.023-0.019-0.041-0.043-0.055-0.070l-0.001-0.001c-0.193-0.326-0.549-0.522-0.909-0.639s-0.739-0.172-1.096-0.301c-0.217-0.080-0.405-0.175-0.579-0.29l0.010 0.006c-0.049 0.070-0.077 0.158-0.077 0.252 0 0.075 0.019 0.146 0.051 0.208l-0.001-0.002c0.079 0.14 0.258 0.221 0.411 0.172 0.079-0.025 0.146-0.080 0.224-0.107s0.184-0.014 0.218 0.062c0.033 0.072-0.017 0.16 0.008 0.236 0.038 0.115 0.211 0.124 0.272 0.229 0.045 0.078 0.008 0.181-0.056 0.244s-0.151 0.097-0.229 0.141c-0.255 0.142-0.437 0.385-0.66 0.573s-0.538 0.326-0.804 0.205c0.063-0.321-0.319-0.557-0.389-0.877-0.023-0.105-0.011-0.217-0.044-0.319-0.048-0.148-0.18-0.251-0.288-0.363-0.243-0.255-0.392-0.601-0.392-0.981 0-0.019 0-0.039 0.001-0.058l-0 0.003c0.006-0.132 0.030-0.266 0-0.395s-0.137-0.253-0.269-0.248c-0.302 0.013-0.682 0.036-0.84-0.221-0.056-0.092-0.081-0.226 0.001-0.297 0.058-0.050 0.143-0.045 0.218-0.037l0.68 0.067c0.159 0.016 0.331 0.029 0.467-0.055s0.196-0.304 0.069-0.402c-0.092-0.071-0.258-0.068-0.285-0.181-0.022-0.095 0.082-0.202 0.026-0.281-0.041-0.057-0.132-0.041-0.187 0.002s-0.095 0.105-0.157 0.137c-0.108 0.056-0.238 0.003-0.355-0.034s-0.273-0.040-0.33 0.069c-0.063 0.121 0.056 0.28-0.007 0.402-0.083 0.161-0.364 0.069-0.481 0.207-0.134 0.159 0.091 0.395 0.046 0.597-0.048 0.024-0.105 0.039-0.165 0.039-0.075 0-0.144-0.022-0.203-0.060l0.001 0.001c-0.095-0.065-0.156-0.172-0.156-0.294 0-0.013 0.001-0.026 0.002-0.039l-0 0.002c0.011-0.091 0.059-0.184 0.027-0.27-0.026-0.070-0.096-0.111-0.161-0.147l-0.661-0.365c-0.061 0.114 0.016 0.255 0.113 0.34s0.218 0.15 0.282 0.262c0.024 0.046 0.038 0.1 0.038 0.158 0 0.125-0.067 0.235-0.166 0.295l-0.002 0.001c-0.013 0.009-0.028 0.014-0.045 0.014-0.007 0-0.014-0.001-0.021-0.003l0.001 0c-0.021-0.012-0.036-0.033-0.042-0.056l-0-0.001c-0.117-0.298-0.292-0.592-0.571-0.748s-0.682-0.124-0.865 0.139c-0.044 0.062-0.073 0.133-0.111 0.199-0.202 0.35-0.634 0.516-1.038 0.505-0.003 0-0.007 0-0.011 0-0.037 0-0.073-0.010-0.103-0.027l0.001 0.001c-0.065-0.045-0.062-0.141-0.052-0.22l0.042-0.334c0.009-0.067 0.021-0.141 0.074-0.183 0.075-0.059 0.183-0.022 0.278-0.023 0.15-0.007 0.275-0.108 0.319-0.244l0.001-0.002c0.009-0.032 0.014-0.068 0.014-0.106 0-0.114-0.048-0.217-0.125-0.289l-0-0c-0.044-0.041-0.102-0.093-0.079-0.148 0.018-0.030 0.049-0.052 0.085-0.058l0.001-0c0.171-0.050 0.352-0.063 0.52-0.121s0.332-0.179 0.372-0.352c0.012-0.053 0.018-0.118 0.066-0.144 0.022-0.010 0.048-0.015 0.076-0.015h0c0.18-0.026 0.317-0.18 0.317-0.365 0-0.007-0-0.014-0.001-0.020l0 0.001c0.081-0.056 0.194-0.015 0.272 0.045s0.147 0.139 0.242 0.165c0.177 0.048 0.348-0.109 0.531-0.109 0.077-0 0.157 0.027 0.23 0.001 0.074-0.027 0.117-0.1 0.174-0.154s0.156-0.087 0.208-0.029l-0.044-0.329c0.048 0.012 0.102 0.020 0.158 0.020 0.138 0 0.265-0.043 0.37-0.116l-0.002 0.001-0.574-0.194c-0.021-0.005-0.039-0.015-0.054-0.029l0 0c-0.042-0.045-0-0.115 0.034-0.166 0.081-0.122 0.095-0.323-0.039-0.384-0.091-0.041-0.196 0.008-0.283 0.057l-0.419 0.234c-0.013 0.080 0.084 0.125 0.144 0.178 0.050 0.045 0.081 0.109 0.081 0.181 0 0.133-0.107 0.24-0.239 0.242h-0c0.039 0.050 0.063 0.114 0.063 0.184 0 0.025-0.003 0.050-0.009 0.074l0-0.002-0.282 0.020c-0.007 0.002-0.016 0.002-0.024 0.002-0.025 0-0.048-0.008-0.068-0.021l0 0c-0.030-0.027-0.026-0.074-0.033-0.113-0.017-0.096-0.111-0.163-0.206-0.18s-0.194 0.005-0.289 0.027c-0.017 0.006-0.037 0.010-0.058 0.010-0.024 0-0.046-0.005-0.067-0.013l0.001 0c-0.022-0.015-0.040-0.036-0.049-0.061l-0-0.001c-0.042-0.101-0.003-0.219 0.064-0.305s0.158-0.149 0.24-0.221c0.192-0.169 0.336-0.388 0.414-0.636l0.003-0.010c0.155-0.065 0.316-0.153 0.471-0.218 0.189-0.098 0.413-0.155 0.651-0.155 0.044 0 0.087 0.002 0.129 0.006l-0.006-0 0.525 0.010c0.156 0.003 0.315 0.007 0.459 0.066s0.27 0.188 0.28 0.343c0.001 0.005 0.002 0.011 0.002 0.018 0 0.031-0.014 0.059-0.035 0.078l-0 0c-0.017 0.010-0.038 0.015-0.059 0.015-0.002 0-0.005-0-0.007-0h0c-0.145 0.005-0.207 0.041-0.352 0.046z"></path>
<path fill="#3f3d56" style="fill: var(--color2, #3f3d56)" d="M18.722 10.864c0.030-0.028 0.048-0.068 0.048-0.112 0-0.015-0.002-0.030-0.006-0.044l0 0.001c-0.031-0.012-0.066-0.019-0.104-0.019-0.075 0-0.143 0.029-0.194 0.076l0-0c-0.030 0.031-0.057 0.065-0.078 0.103l-0.001 0.002c-0.069 0.113-0.13 0.247-0.090 0.373 0.007 0.028 0.024 0.052 0.048 0.066l0 0c0.014 0.006 0.030 0.009 0.047 0.009 0.003 0 0.006-0 0.009-0l-0 0c0.080-0 0.159-0.005 0.237-0.015l-0.009 0.001c0.046-0.006 0.1-0.019 0.118-0.062 0.024-0.057-0.033-0.121-0.017-0.18 0.012-0.027 0.028-0.050 0.048-0.069l0-0c0.018-0.017 0.029-0.041 0.029-0.067 0-0.004-0-0.007-0.001-0.010l0 0c-0.007-0.028-0.049-0.043-0.064-0.019z"></path>
<path fill="#3f3d56" style="fill: var(--color2, #3f3d56)" d="M19.117 10.353c-0.043-0.010-0.092-0.016-0.142-0.016-0.022 0-0.045 0.001-0.066 0.003l0.003-0c-0.001-0-0.002-0-0.003-0-0.015 0-0.029 0.004-0.042 0.010l0-0c-0.013 0.010-0.022 0.023-0.027 0.039l-0 0.001c-0.006 0.017-0.009 0.037-0.009 0.058 0 0.081 0.050 0.151 0.121 0.18l0.001 0c0.027 0.006 0.050 0.016 0.071 0.029l-0.001-0.001c0.058 0.045 0.021 0.138 0.032 0.211 0.012 0.082 0.092 0.151 0.077 0.232-0.011 0.064-0.080 0.115-0.069 0.18 0.012 0.067 0.097 0.088 0.165 0.093 0.011 0.002 0.023 0.003 0.036 0.003 0.029 0 0.057-0.006 0.083-0.017l-0.001 0.001c0.036-0.025 0.063-0.062 0.074-0.106l0-0.001c0.023-0.065 0.036-0.14 0.036-0.218 0-0.014-0-0.028-0.001-0.042l0 0.002c-0-0.042-0.011-0.081-0.030-0.115l0.001 0.001c-0.021-0.029-0.044-0.054-0.068-0.078l-0-0c-0.131-0.152 0.007-0.379-0.24-0.448z"></path>
<path fill="#b21741" style="fill: var(--color3, #b21741)" d="M8.276 11.374c0 0.242-0.196 0.438-0.438 0.438s-0.438-0.196-0.438-0.438c0-0.242 0.196-0.438 0.438-0.438s0.438 0.196 0.438 0.438z"></path>
<path fill="#b21741" style="fill: var(--color3, #b21741)" d="M12.235 20.742c0 0.242-0.196 0.438-0.438 0.438s-0.438-0.196-0.438-0.438c0-0.242 0.196-0.438 0.438-0.438s0.438 0.196 0.438 0.438z"></path>
<path fill="#b21741" style="fill: var(--color3, #b21741)" d="M29.023 11.314c0 0.242-0.196 0.438-0.438 0.438s-0.438-0.196-0.438-0.438c0-0.242 0.196-0.438 0.438-0.438s0.438 0.196 0.438 0.438z"></path>
<path fill="#b21741" style="fill: var(--color3, #b21741)" d="M36.729 22.253c0 0.242-0.196 0.438-0.438 0.438s-0.438-0.196-0.438-0.438c0-0.242 0.196-0.438 0.438-0.438s0.438 0.196 0.438 0.438z"></path>
<path fill="#b21741" style="fill: var(--color3, #b21741)" d="M22.42 17.6c0 0.242-0.196 0.438-0.438 0.438s-0.438-0.196-0.438-0.438c0-0.242 0.196-0.438 0.438-0.438s0.438 0.196 0.438 0.438z"></path>
</symbol>
<symbol id="icon-undraw_nature_yf30" viewBox="0 0 30 32">
<path fill="#ff6584" style="fill: var(--color4, #ff6584)" d="M23.966 10.791c0 1.779-1.442 3.221-3.221 3.221s-3.221-1.442-3.221-3.221c0-1.779 1.442-3.221 3.221-3.221s3.221 1.442 3.221 3.221z"></path>
<path fill="#fff" style="fill: var(--color5, #fff)" d="M29.58 13.193c0.007-0.001 0.012-0.006 0.021-0.005-0.004-0.016-0.009-0.030-0.015-0.043l0.001 0.002c-0.010 0.014-0.021 0.028-0.030 0.041z"></path>
<path fill="#e6e6e6" style="fill: var(--color6, #e6e6e6)" d="M7.976 18.415c0.021 0.746 0.147 1.455 0.365 2.122l-0.015-0.053c0.005 0.016 0.010 0.031 0.015 0.046h1.305c-0.001-0.014-0.003-0.029-0.004-0.046-0.087-1-0.589-7.088 0.011-8.129-0.052 0.084-1.778 2.882-1.677 6.060z"></path>
<path fill="#e6e6e6" style="fill: var(--color6, #e6e6e6)" d="M8.074 20.484c0.011 0.016 0.022 0.031 0.034 0.046h0.979c-0.007-0.013-0.016-0.029-0.026-0.046-0.162-0.292-0.64-1.165-1.085-2.069-0.478-0.972-0.916-1.981-0.879-2.346-0.011 0.082-0.342 2.593 0.977 4.416z"></path>
<path fill="#e6e6e6" style="fill: var(--color6, #e6e6e6)" d="M18.247 20.651c-0.018 0.65-0.128 1.268-0.318 1.85l0.013-0.046c-0.004 0.014-0.009 0.027-0.013 0.040h-1.138c0.001-0.012 0.002-0.026 0.004-0.040 0.076-0.872 0.513-6.18-0.010-7.087 0.046 0.074 1.55 2.512 1.462 5.283z"></path>
<path fill="#e6e6e6" style="fill: var(--color6, #e6e6e6)" d="M18.162 22.455c-0.009 0.014-0.019 0.027-0.030 0.040h-0.853c0.006-0.012 0.014-0.025 0.023-0.040 0.141-0.254 0.558-1.015 0.946-1.804 0.416-0.848 0.798-1.727 0.766-2.046 0.010 0.072 0.298 2.261-0.851 3.85z"></path>
<path fill="#3f3d56" style="fill: var(--color2, #3f3d56)" d="M5.239 2.614l0.531-0.424c-0.412-0.045-0.582 0.179-0.651 0.357-0.322-0.134-0.673 0.042-0.673 0.042l1.061 0.385c-0.056-0.147-0.148-0.268-0.267-0.358l-0.002-0.001z"></path>
<path fill="#3f3d56" style="fill: var(--color2, #3f3d56)" d="M21.218 0.43l0.531-0.424c-0.412-0.045-0.581 0.179-0.651 0.357-0.322-0.134-0.672 0.042-0.672 0.042l1.061 0.385c-0.056-0.147-0.148-0.268-0.267-0.358l-0.002-0.001z"></path>
<path fill="#3f3d56" style="fill: var(--color2, #3f3d56)" d="M29.024 17.21q0 0.527-0.037 1.046c-0.204 2.862-1.197 5.458-2.761 7.613l0.029-0.043q-0.313 0.437-0.657 0.849c-0.602 0.719-1.248 1.361-1.948 1.939l-0.025 0.020-3.144-1.845-1.88-4.388s2.805-5.679 10.418-5.576q0.005 0.191 0.005 0.384z"></path>
<path fill="#b21741" style="fill: var(--color3, #b21741)" d="M28.988 18.257c-0.312 4.266-2.389 7.993-5.497 10.49l-0.029 0.022-2.921-1.714-1.667-3.892s2.702-5.47 10.114-4.907z"></path>
<path fill="#3f3d56" style="fill: var(--color2, #3f3d56)" d="M26.256 25.827q-0.313 0.437-0.657 0.849c-1.521 1.819-3.441 3.252-5.629 4.175l-0.097 0.036q-0.675 0.278-1.382 0.491c-1.248 0.345-2.681 0.544-4.161 0.544-2.202 0-4.3-0.439-6.214-1.235l0.107 0.040c-3.242-1.472-5.803-3.974-7.311-7.081l-0.039-0.088q-0.306-0.644-0.551-1.32c2.843-2.083 8.445-5.065 14.551-2.167q2.534 1.202 4.524 2.192c3.368 1.669 5.61 2.873 6.858 3.565z"></path>
<path fill="#b21741" style="fill: var(--color3, #b21741)" d="M25.598 26.677c-2.734 3.26-6.808 5.318-11.363 5.318-5.861 0-10.927-3.407-13.324-8.349l-0.039-0.088c2.374-1.878 7.851-5.252 13.861-2.4q2.318 1.1 4.14 2.006c3.54 1.754 5.72 2.947 6.725 3.513z"></path>
<path fill="#3f3d56" style="fill: var(--color2, #3f3d56)" d="M21.407 30.148c-0.413 0.236-0.917 0.484-1.437 0.703l-0.098 0.037c-1.661 0.704-3.592 1.112-5.619 1.112-0.006 0-0.013 0-0.019 0h0.001c-4.806-0.002-9.076-2.294-11.779-5.843l-0.026-0.036c3.532-0.372 13.296-0.875 18.978 4.027z"></path>
<path fill="#b21741" style="fill: var(--color3, #b21741)" d="M19.872 30.888c-1.664 0.704-3.6 1.112-5.63 1.112-4.245 0-8.073-1.787-10.773-4.649l-0.007-0.007c1.285-0.189 11.372-1.485 16.41 3.544z"></path>
<path fill="#e6e6e6" style="fill: var(--color6, #e6e6e6)" d="M26.544 9.009v0c-10.56-7.808-22.66-2.312-22.753-2.27v-0c2.668-2.668 6.354-4.318 10.425-4.318 0.007 0 0.013 0 0.020 0h-0.001c5.134 0 9.657 2.616 12.309 6.588z"></path>
<path fill="#3f3d56" style="fill: var(--color2, #3f3d56)" d="M6.682 10.314c0.657 3.645-0.258 6.861-2.045 7.183s-3.768-2.372-4.425-6.017c-0.657-3.645 0.258-6.861 2.045-7.183s3.768 2.372 4.425 6.017z"></path>
<path fill="#b21741" style="fill: var(--color3, #b21741)" d="M5.097 21.754c-0.106-8.007-2.785-15.52-2.812-15.595l-0.244 0.088c0.027 0.075 2.691 7.549 2.796 15.511z"></path>
<path fill="#b21741" style="fill: var(--color3, #b21741)" d="M0.264 10.238l0.080-0.247 3.207 1.037-0.080 0.247-3.207-1.037z"></path>
<path fill="#b21741" style="fill: var(--color3, #b21741)" d="M3.734 11.806l2.642-2.093 0.161 0.204-2.642 2.093-0.161-0.204z"></path>
<path fill="#3f3d56" style="fill: var(--color2, #3f3d56)" d="M16.784 9.086c0 4.008-1.592 7.257-3.557 7.257s-3.557-3.249-3.557-7.257c0-4.008 1.592-7.257 3.557-7.257s3.557 3.249 3.557 7.257z"></path>
<path fill="#b21741" style="fill: var(--color3, #b21741)" d="M12.899 20.965c1.425-8.547 0.014-17.063-0-17.147l-0.277 0.047c0.014 0.085 1.416 8.556-0 17.054z"></path>
<path fill="#b21741" style="fill: var(--color3, #b21741)" d="M9.964 7.773l0.133-0.248 3.216 1.72-0.133 0.248-3.216-1.72z"></path>
<path fill="#b21741" style="fill: var(--color3, #b21741)" d="M13.359 10.108l3.216-1.721 0.133 0.248-3.216 1.721-0.133-0.248z"></path>
<path fill="#e6e6e6" style="fill: var(--color6, #e6e6e6)" d="M28.677 14.008c-1.146-0.659-2.49-1.287-3.888-1.803l-0.188-0.061c-7.784-2.817-15.504-1.731-18.525 2.3 2.351-4.939 10.741-6.492 19.208-3.428 1.171 0.424 2.123 0.84 3.047 1.306l-0.158-0.072c0.176 0.469 0.349 1.057 0.486 1.659l0.019 0.098z"></path>
<path fill="#3f3d56" style="fill: var(--color2, #3f3d56)" d="M18.163 6.061l0.531-0.424c-0.412-0.045-0.581 0.179-0.651 0.357-0.322-0.134-0.672 0.042-0.672 0.042l1.061 0.385c-0.056-0.147-0.148-0.268-0.267-0.358l-0.002-0.001z"></path>
</symbol>
<symbol id="icon-undraw_through-the-park_xcqx" viewBox="0 0 46 32">
<path fill="#3f3d56" style="fill: var(--color2, #3f3d56)" d="M23.717 17.899h-3.144v0.101h0.49v0.963h0.101v-0.963h1.91v0.963h0.101v-0.963h0.541v-0.101z"></path>
<path fill="#3f3d56" style="fill: var(--color2, #3f3d56)" d="M24.884 15.415h-0.811v0.811h0.376v2.734h0.101v-2.734h0.334v-0.811z"></path>
<path fill="#3f3d56" style="fill: var(--color2, #3f3d56)" d="M20.58 17.596h3.144v0.101h-3.144v-0.101z"></path>
<path fill="#3f3d56" style="fill: var(--color2, #3f3d56)" d="M20.58 17.343h3.144v0.101h-3.144v-0.101z"></path>
<path fill="#3f3d56" style="fill: var(--color2, #3f3d56)" d="M20.58 17.089h3.144v0.101h-3.144v-0.101z"></path>
<path fill="#3f3d56" style="fill: var(--color2, #3f3d56)" d="M31.779 19.257h-0.101c0-4.809-3.912-8.721-8.721-8.721s-8.721 3.912-8.721 8.721h-0.101c0-4.865 3.958-8.823 8.823-8.823s8.823 3.958 8.823 8.823z"></path>
<path fill="#b21741" style="fill: var(--color3, #b21741)" d="M16.581 8.29c0 4.579-3.712 8.29-8.29 8.29s-8.29-3.712-8.29-8.29c0-4.579 3.712-8.29 8.29-8.29s8.29 3.712 8.29 8.29z"></path>
<path fill="#000" style="fill: var(--color7, #000)" opacity="0.2" d="M14.457 2.753c0.422 0.961 0.667 2.081 0.667 3.259 0 4.579-3.712 8.291-8.291 8.291-2.457 0-4.665-1.069-6.184-2.768l-0.007-0.008c1.299 2.984 4.222 5.032 7.624 5.032 4.579 0 8.291-3.712 8.291-8.291 0-2.122-0.797-4.057-2.108-5.524l0.007 0.008z"></path>
<path fill="#3f3d56" style="fill: var(--color2, #3f3d56)" d="M8.313 8.29h0.023l0.41 23.504h-0.865l0.433-23.504z"></path>
<path fill="#3f3d56" style="fill: var(--color2, #3f3d56)" d="M9.632 20.73l0.191 0.363-1.37 0.721-0.191-0.363 1.37-0.721z"></path>
<path fill="#b21741" style="fill: var(--color3, #b21741)" d="M45.516 11.808c0 3.706-3.004 6.71-6.71 6.71s-6.71-3.004-6.71-6.71c0-3.706 3.004-6.71 6.71-6.71s6.71 3.004 6.71 6.71z"></path>
<path fill="#000" style="fill: var(--color7, #000)" opacity="0.2" d="M43.798 7.326c0.341 0.778 0.54 1.685 0.54 2.638 0 3.706-3.004 6.71-6.71 6.71-1.989 0-3.776-0.865-5.005-2.24l-0.006-0.007c1.052 2.415 3.417 4.073 6.17 4.073 3.706 0 6.711-3.004 6.711-6.711 0-1.717-0.645-3.284-1.706-4.471l0.006 0.006z"></path>
<path fill="#3f3d56" style="fill: var(--color2, #3f3d56)" d="M38.825 11.808h0.018l0.332 19.024h-0.7l0.35-19.024z"></path>
<path fill="#3f3d56" style="fill: var(--color2, #3f3d56)" d="M39.892 21.876l0.155 0.294-1.109 0.584-0.155-0.294 1.109-0.584z"></path>
<path fill="#b21741" style="fill: var(--color3, #b21741)" d="M20.062 16.529c0 0.583-0.473 1.056-1.056 1.056s-1.056-0.473-1.056-1.056c0-0.583 0.473-1.056 1.056-1.056s1.056 0.473 1.056 1.056z"></path>
<path fill="#000" style="fill: var(--color7, #000)" opacity="0.2" d="M19.792 15.824c0.054 0.122 0.085 0.265 0.085 0.415 0 0.583-0.473 1.056-1.056 1.056-0.313 0-0.594-0.136-0.788-0.353l-0.001-0.001c0.166 0.38 0.538 0.641 0.971 0.641 0.583 0 1.056-0.473 1.056-1.056 0-0.27-0.102-0.517-0.269-0.704l0.001 0.001z"></path>
<path fill="#3f3d56" style="fill: var(--color2, #3f3d56)" d="M19.009 16.529h0.003l0.052 2.995h-0.11l0.055-2.995z"></path>
<path fill="#3f3d56" style="fill: var(--color2, #3f3d56)" d="M19.177 18.114l0.024 0.046-0.175 0.092-0.024-0.046 0.175-0.092z"></path>
<path fill="#b21741" style="fill: var(--color3, #b21741)" d="M31.471 13.125c0 1.493-1.211 2.704-2.704 2.704s-2.704-1.211-2.704-2.704c0-1.494 1.211-2.704 2.704-2.704s2.704 1.211 2.704 2.704z"></path>
<path fill="#000" style="fill: var(--color7, #000)" opacity="0.2" d="M30.778 11.319c0.138 0.313 0.218 0.679 0.218 1.063 0 1.494-1.211 2.704-2.704 2.704-0.802 0-1.522-0.349-2.017-0.903l-0.002-0.003c0.424 0.973 1.377 1.642 2.487 1.642 1.494 0 2.704-1.211 2.704-2.704 0-0.692-0.26-1.323-0.688-1.802l0.002 0.003z"></path>
<path fill="#3f3d56" style="fill: var(--color2, #3f3d56)" d="M28.774 13.125h0.007l0.134 7.667h-0.282l0.141-7.667z"></path>
<path fill="#3f3d56" style="fill: var(--color2, #3f3d56)" d="M29.204 17.183l0.062 0.118-0.447 0.235-0.062-0.118 0.447-0.235z"></path>
<path fill="#3f3d56" style="fill: var(--color2, #3f3d56)" d="M10.149 30.625s0.035-0.734 0.753-0.648z"></path>
<path fill="#b21741" style="fill: var(--color3, #b21741)" d="M10.305 29.567c0 0.198-0.161 0.359-0.359 0.359s-0.359-0.161-0.359-0.359c0-0.198 0.161-0.359 0.359-0.359s0.359 0.161 0.359 0.359z"></path>
<path fill="#3f3d56" style="fill: var(--color2, #3f3d56)" d="M9.888 30.172h0.101v0.71h-0.101v-0.71z"></path>
<path fill="#3f3d56" style="fill: var(--color2, #3f3d56)" d="M12.684 28.951s0.035-0.734 0.753-0.648z"></path>
<path fill="#b21741" style="fill: var(--color3, #b21741)" d="M12.841 27.894c0 0.198-0.161 0.359-0.359 0.359s-0.359-0.161-0.359-0.359c0-0.198 0.161-0.359 0.359-0.359s0.359 0.161 0.359 0.359z"></path>
<path fill="#3f3d56" style="fill: var(--color2, #3f3d56)" d="M12.423 28.499h0.101v0.71h-0.101v-0.71z"></path>
<path fill="#3f3d56" style="fill: var(--color2, #3f3d56)" d="M20.326 23.275s0.028-0.583 0.598-0.515z"></path>
<path fill="#b21741" style="fill: var(--color3, #b21741)" d="M20.451 22.435c0 0.158-0.128 0.285-0.285 0.285s-0.285-0.128-0.285-0.285c0-0.158 0.128-0.285 0.285-0.285s0.285 0.128 0.285 0.285z"></path>
<path fill="#3f3d56" style="fill: var(--color2, #3f3d56)" d="M20.119 22.915h0.081v0.564h-0.081v-0.564z"></path>
<path fill="#3f3d56" style="fill: var(--color2, #3f3d56)" d="M31.482 21.449s0.028-0.583 0.598-0.515z"></path>
<path fill="#b21741" style="fill: var(--color3, #b21741)" d="M31.606 20.609c0 0.158-0.128 0.285-0.285 0.285s-0.285-0.128-0.285-0.285c0-0.158 0.128-0.285 0.285-0.285s0.285 0.128 0.285 0.285z"></path>
<path fill="#3f3d56" style="fill: var(--color2, #3f3d56)" d="M31.274 21.090h0.081v0.564h-0.081v-0.564z"></path>
<path fill="#3f3d56" style="fill: var(--color2, #3f3d56)" d="M20.833 24.796s0.028-0.583 0.598-0.515z"></path>
<path fill="#b21741" style="fill: var(--color3, #b21741)" d="M20.958 23.956c0 0.158-0.128 0.285-0.285 0.285s-0.285-0.128-0.285-0.285c0-0.158 0.128-0.285 0.285-0.285s0.285 0.128 0.285 0.285z"></path>
<path fill="#3f3d56" style="fill: var(--color2, #3f3d56)" d="M20.626 24.436h0.081v0.564h-0.081v-0.564z"></path>
<path fill="#3f3d56" style="fill: var(--color2, #3f3d56)" d="M19.616 25.911s0.028-0.583 0.598-0.515z"></path>
<path fill="#b21741" style="fill: var(--color3, #b21741)" d="M19.741 25.071c0 0.158-0.128 0.285-0.285 0.285s-0.285-0.128-0.285-0.285c0-0.158 0.128-0.285 0.285-0.285s0.285 0.128 0.285 0.285z"></path>
<path fill="#3f3d56" style="fill: var(--color2, #3f3d56)" d="M19.409 25.552h0.081v0.564h-0.081v-0.564z"></path>
<path fill="#3f3d56" style="fill: var(--color2, #3f3d56)" d="M33.206 22.413s0.028-0.583 0.598-0.515z"></path>
<path fill="#b21741" style="fill: var(--color3, #b21741)" d="M33.33 21.573c0 0.158-0.128 0.285-0.285 0.285s-0.285-0.128-0.285-0.285c0-0.158 0.128-0.285 0.285-0.285s0.285 0.128 0.285 0.285z"></path>
<path fill="#3f3d56" style="fill: var(--color2, #3f3d56)" d="M32.998 22.053h0.081v0.564h-0.081v-0.564z"></path>
<path fill="#3f3d56" style="fill: var(--color2, #3f3d56)" d="M16.777 23.68s0.028-0.583 0.598-0.515z"></path>
<path fill="#b21741" style="fill: var(--color3, #b21741)" d="M16.901 22.84c0 0.158-0.128 0.285-0.285 0.285s-0.285-0.128-0.285-0.285c0-0.158 0.128-0.285 0.285-0.285s0.285 0.128 0.285 0.285z"></path>
<path fill="#3f3d56" style="fill: var(--color2, #3f3d56)" d="M16.57 23.321h0.081v0.564h-0.081v-0.564z"></path>
<path fill="#3f3d56" style="fill: var(--color2, #3f3d56)" d="M29.96 20.79s0.028-0.583 0.598-0.515z"></path>
<path fill="#b21741" style="fill: var(--color3, #b21741)" d="M30.085 19.95c0 0.158-0.128 0.285-0.285 0.285s-0.285-0.128-0.285-0.285c0-0.158 0.128-0.285 0.285-0.285s0.285 0.128 0.285 0.285z"></path>
<path fill="#3f3d56" style="fill: var(--color2, #3f3d56)" d="M29.753 20.431h0.081v0.564h-0.081v-0.564z"></path>
<path fill="#3f3d56" style="fill: var(--color2, #3f3d56)" d="M5.737 30.777s0.035-0.734 0.753-0.648z"></path>
<path fill="#b21741" style="fill: var(--color3, #b21741)" d="M5.894 29.719c0 0.198-0.161 0.359-0.359 0.359s-0.359-0.161-0.359-0.359c0-0.198 0.161-0.359 0.359-0.359s0.359 0.161 0.359 0.359z"></path>
<path fill="#3f3d56" style="fill: var(--color2, #3f3d56)" d="M5.476 30.324h0.101v0.71h-0.101v-0.71z"></path>
<path fill="#3f3d56" style="fill: var(--color2, #3f3d56)" d="M40.673 30.574s0.035-0.734 0.753-0.648z"></path>
<path fill="#b21741" style="fill: var(--color3, #b21741)" d="M40.83 29.517c0 0.198-0.161 0.359-0.359 0.359s-0.359-0.161-0.359-0.359c0-0.198 0.161-0.359 0.359-0.359s0.359 0.161 0.359 0.359z"></path>
<path fill="#3f3d56" style="fill: var(--color2, #3f3d56)" d="M40.412 30.122h0.101v0.71h-0.101v-0.71z"></path>
<path fill="#3f3d56" style="fill: var(--color2, #3f3d56)" d="M37.733 28.85s0.035-0.734 0.753-0.648z"></path>
<path fill="#b21741" style="fill: var(--color3, #b21741)" d="M37.889 27.793c0 0.198-0.161 0.359-0.359 0.359s-0.359-0.161-0.359-0.359c0-0.198 0.161-0.359 0.359-0.359s0.359 0.161 0.359 0.359z"></path>
<path fill="#3f3d56" style="fill: var(--color2, #3f3d56)" d="M37.471 28.398h0.101v0.71h-0.101v-0.71z"></path>
<path fill="#3f3d56" style="fill: var(--color2, #3f3d56)" d="M37.327 31.436s0.035-0.734 0.753-0.648z"></path>
<path fill="#b21741" style="fill: var(--color3, #b21741)" d="M37.483 30.379c0 0.198-0.161 0.359-0.359 0.359s-0.359-0.161-0.359-0.359c0-0.198 0.161-0.359 0.359-0.359s0.359 0.161 0.359 0.359z"></path>
<path fill="#3f3d56" style="fill: var(--color2, #3f3d56)" d="M37.066 30.984h0.101v0.71h-0.101v-0.71z"></path>
<path fill="#e6e6e6" style="fill: var(--color6, #e6e6e6)" d="M6.321 31.984s15.972-4.209 15.82-8.518c-0.279-1.192-2.206-1.496-2.206-1.496s-4.564-0.608-2.079-2.079 9.279-1.116 9.279-1.116-6.997 1.116-3.904 1.724c2.485 0.152 5.679 0.811 5.679 0.811s6.49 1.369 7.403 4.716 0.152 5.933 0.152 5.933z"></path>
<path fill="#fff" style="fill: var(--color5, #fff)" d="M23.718 32l-0.060-0.084q0.127-0.091 0.25-0.18l0.061 0.083q-0.123 0.090-0.25 0.181z"></path>
<path fill="#fff" style="fill: var(--color5, #fff)" d="M24.463 31.452l-0.062-0.082c0.166-0.126 0.33-0.252 0.486-0.376l0.064 0.081c-0.157 0.124-0.321 0.251-0.488 0.377zM25.43 30.686l-0.066-0.079c0.161-0.134 0.318-0.268 0.467-0.399l0.068 0.077c-0.15 0.132-0.308 0.267-0.469 0.401zM26.357 29.871l-0.070-0.075c0.153-0.144 0.301-0.288 0.44-0.428l0.073 0.072c-0.139 0.141-0.288 0.286-0.442 0.431zM27.223 28.99l-0.076-0.069c0.141-0.157 0.274-0.314 0.396-0.467l0.080 0.064c-0.123 0.155-0.258 0.313-0.4 0.472zM27.991 28.021l-0.085-0.058c0.119-0.175 0.227-0.35 0.32-0.519l0.090 0.049c-0.095 0.172-0.204 0.35-0.326 0.528zM28.582 26.931l-0.096-0.038c0.067-0.162 0.127-0.356 0.17-0.557l0.004-0.023 0.101 0.021c-0.049 0.23-0.111 0.43-0.188 0.621l0.009-0.025zM28.719 25.713c-0.003-0.212-0.033-0.415-0.087-0.608l0.004 0.017 0.099-0.027c0.051 0.184 0.083 0.396 0.086 0.614l0 0.002zM28.412 24.567c-0.105-0.188-0.218-0.351-0.346-0.501l0.004 0.005 0.079-0.066c0.128 0.151 0.245 0.319 0.345 0.497l0.008 0.016zM27.645 23.637c-0.143-0.127-0.299-0.25-0.462-0.366l-0.017-0.012 0.059-0.084c0.183 0.129 0.342 0.256 0.494 0.39l-0.006-0.005zM26.651 22.929c-0.168-0.099-0.349-0.197-0.539-0.293l0.046-0.092c0.191 0.097 0.375 0.196 0.545 0.296zM25.557 22.373c-0.179-0.079-0.369-0.159-0.566-0.238l0.038-0.095c0.198 0.079 0.39 0.159 0.57 0.239zM24.415 21.917c-0.183-0.066-0.379-0.135-0.582-0.203l0.033-0.097c0.204 0.068 0.4 0.137 0.584 0.203zM23.247 21.524c-0.179-0.056-0.372-0.116-0.589-0.182l0.030-0.098c0.218 0.066 0.411 0.126 0.59 0.182zM22.066 21.165c-0.208-0.062-0.406-0.122-0.592-0.179l0.030-0.098c0.185 0.057 0.383 0.116 0.591 0.179zM20.885 20.795c-0.231-0.077-0.423-0.156-0.608-0.246l0.029 0.013 0.046-0.092c0.153 0.076 0.34 0.153 0.533 0.218l0.034 0.010zM20.109 20.122l-0.073-0.072c0.094-0.095 0.279-0.188 0.567-0.285l0.033 0.097c-0.268 0.090-0.445 0.177-0.526 0.259zM21.223 19.695l-0.025-0.1c0.178-0.044 0.38-0.091 0.602-0.138l0.021 0.101c-0.22 0.047-0.422 0.093-0.598 0.137zM22.423 19.437l-0.019-0.101c0.189-0.036 0.393-0.074 0.606-0.111l0.018 0.101c-0.212 0.038-0.416 0.075-0.605 0.111zM23.634 19.222l-0.017-0.101q0.29-0.049 0.608-0.1l0.016 0.101q-0.317 0.051-0.607 0.099z"></path>
<path fill="#fff" style="fill: var(--color5, #fff)" d="M24.861 19.024l-0.016-0.102q0.15-0.023 0.305-0.047l0.015 0.102q-0.155 0.024-0.305 0.047z"></path>
<path fill="#3f3d56" style="fill: var(--color2, #3f3d56)" d="M27.136 8.587l0.467-0.373c-0.363-0.040-0.512 0.158-0.573 0.314-0.283-0.118-0.592 0.037-0.592 0.037l0.934 0.339c-0.049-0.129-0.131-0.236-0.235-0.315l-0.002-0.001z"></path>
<path fill="#3f3d56" style="fill: var(--color2, #3f3d56)" d="M18.465 11.477l0.467-0.373c-0.363-0.040-0.512 0.158-0.573 0.314-0.283-0.118-0.592 0.037-0.592 0.037l0.934 0.339c-0.049-0.129-0.131-0.236-0.235-0.315l-0.002-0.001z"></path>
<path fill="#3f3d56" style="fill: var(--color2, #3f3d56)" d="M20.747 5.494l0.467-0.373c-0.363-0.040-0.512 0.158-0.573 0.314-0.283-0.118-0.592 0.037-0.592 0.037l0.934 0.339c-0.049-0.129-0.131-0.236-0.235-0.315l-0.002-0.001z"></path>
<path fill="#9e616a" style="fill: var(--color8, #9e616a)" d="M25.821 22.116s-0.404 0-0.449 0.247-0.112 2.942-0.067 3.279 0.045 0.27 0.045 0.27-0.090 0.64 0.112 0.668 0.202-0.736 0.202-0.736l0.157-2.74z"></path>
<path fill="#9e616a" style="fill: var(--color8, #9e616a)" d="M27.573 22.116s0.404 0 0.449 0.247 0.112 2.942 0.067 3.279-0.045 0.27-0.045 0.27 0.090 0.64-0.112 0.668-0.202-0.736-0.202-0.736l-0.157-2.74z"></path>
<path fill="#2f2e41" style="fill: var(--color9, #2f2e41)" d="M25.754 31.505h-0.18c0 0 0 0 0 0-0.223 0-0.404 0.181-0.404 0.404v0h1.101v-0.517h-0.517z"></path>
<path fill="#2f2e41" style="fill: var(--color9, #2f2e41)" d="M27.483 31.505h0.18c0 0 0 0 0 0 0.223 0 0.404 0.181 0.404 0.404v0h-1.101v-0.517h0.517z"></path>
<path fill="#9e616a" style="fill: var(--color8, #9e616a)" d="M27.101 21.016c0 0.323-0.261 0.584-0.584 0.584s-0.584-0.261-0.584-0.584c0-0.323 0.261-0.584 0.584-0.584s0.584 0.261 0.584 0.584z"></path>
<path fill="#9e616a" style="fill: var(--color8, #9e616a)" d="M26.383 21.33s-0.067 0.741-0.157 0.809 0.943-0.045 0.943-0.045-0.359-0.539-0.292-0.719-0.494-0.045-0.494-0.045z"></path>
<path fill="#2f2e41" style="fill: var(--color9, #2f2e41)" d="M27.708 22.116s-1.235-0.517-2.044 0c0 0-0.202 0.517-0.045 0.809s0.404 0.988 0.157 1.46 0.022 0.27 0.022 0.27-0.314 1.258-0.359 2.246 0.135 4.537 0.27 4.56 0.562 0.067 0.606 0 0.359-4.762 0.359-4.762 0.135 4.807 0.27 4.807 0.494 0 0.562-0.112 0.629-4.447 0.427-5.346-0.337-1.348-0.337-1.348 0.247-0.157 0.18-0.247-0.404-1.056-0.247-1.213 0.18-1.123 0.18-1.123z"></path>
<path fill="#2f2e41" style="fill: var(--color9, #2f2e41)" d="M27.831 20.664c0 0.521-0.422 0.943-0.943 0.943s-0.943-0.422-0.943-0.943c0-0.521 0.422-0.943 0.943-0.943s0.943 0.422 0.943 0.943z"></path>
<path fill="#2f2e41" style="fill: var(--color9, #2f2e41)" d="M27.477 20.192c-0.283-0.068-0.49-0.319-0.49-0.619 0-0.041 0.004-0.081 0.011-0.12l-0.001 0.004c-0.003 0.010-0.005 0.019-0.008 0.029-0.011 0.044-0.017 0.094-0.017 0.145 0 0.351 0.285 0.636 0.636 0.636 0.299 0 0.55-0.207 0.618-0.485l0.001-0.004c0.002-0.010 0.004-0.020 0.006-0.030-0.078 0.268-0.322 0.461-0.611 0.461-0.052 0-0.102-0.006-0.15-0.018l0.004 0.001z"></path>
<path fill="#2f2e41" style="fill: var(--color9, #2f2e41)" d="M27.977 19.853c0 0.255-0.207 0.462-0.462 0.462s-0.462-0.207-0.462-0.462c0-0.255 0.207-0.462 0.462-0.462s0.462 0.207 0.462 0.462z"></path>
</symbol>
<symbol id="icon-undraw_working-from-anywhere_33m9" viewBox="0 0 43 32">
<path fill="#f2f2f2" style="fill: var(--color1, #f2f2f2)" d="M2.93 27.030c-0.207 0-0.414 0.010-0.616 0.030l-0.029 0.003c-1.342 0.137-2.323 0.929-2.283 1.843l0.008 0.165c0.005 0.104 0.011 0.217 0.015 0.341 0.002 0.061 0.075 0.109 0.166 0.109h33.007c2.327-0.016 4.646-0.037 6.891-0.061 0.007 0 0.016 0 0.024 0 0.436 0 0.865-0.027 1.287-0.080l-0.050 0.005c0.624-0.085 1.057-0.254 1.324-0.515h0c0.332-0.325 0.343-0.733 0.323-1.195-0.041-0.932-0.081-1.912-0.122-2.888-0.036-0.86-0.071-1.719-0.107-2.54-0.022-0.488-0.071-0.918-0.448-1.247-0.409-0.356-1.154-0.536-2.216-0.536-0.013 0-0.026 0-0.039 0-3.327 0.014-6.624 1.331-8.204 3.277-0.182 0.224-0.351 0.464-0.515 0.696-0.257 0.38-0.517 0.711-0.799 1.022l0.007-0.008c-0.158 0.17-0.329 0.324-0.513 0.462l-0.010 0.007c-0.013 0.010-0.027 0.021-0.043 0.032-0.036 0.027-0.073 0.052-0.109 0.075-0.192 0.13-0.411 0.247-0.643 0.34l-0.024 0.009-0.023 0.009c-0.018 0.007-0.037 0.014-0.056 0.021-0.107 0.042-0.244 0.085-0.385 0.121l-0.027 0.006c-0.602 0.153-1.287 0.189-2.035 0.109-0.751-0.085-1.435-0.252-2.083-0.494l0.060 0.020c-0.693-0.252-1.341-0.566-1.968-0.87-0.275-0.134-0.56-0.272-0.845-0.402-0.053-0.025-0.106-0.049-0.16-0.073-0.348-0.156-0.663-0.285-0.963-0.394-0.674-0.255-1.455-0.429-2.268-0.488l-0.027-0.002c-0.828-0.052-1.557 0.046-2.167 0.292-0.191 0.077-0.352 0.159-0.506 0.252l0.015-0.009c-0.723 0.432-1.168 1.070-1.599 1.686-0.536 0.767-1.090 1.56-2.185 1.972-1.263 0.475-3.106 0.278-4.41-0.066-0.41-0.108-0.819-0.232-1.216-0.352q-0.24-0.073-0.48-0.145c-0.315-0.094-0.572-0.165-0.811-0.226l-0.075-0.019c-0.042-0.011-0.084-0.021-0.127-0.031-0.283-0.068-0.547-0.122-0.806-0.165l-0.061-0.010c-0.123-0.019-0.238-0.034-0.351-0.047l-0.045-0.005c-0.202-0.023-0.437-0.036-0.674-0.036-0.002 0-0.004 0-0.006 0h0z"></path>
<path fill="#cacaca" style="fill: var(--color10, #cacaca)" d="M6.78 29.516c0-0 0-0 0-0 0-0.038 0.030-0.068 0.068-0.068v0h29.306c0.038 0 0.068 0.031 0.068 0.068s-0.030 0.068-0.068 0.068h-29.306c-0.038-0-0.068-0.031-0.068-0.068v0z"></path>
<path fill="#ff6584" style="fill: var(--color4, #ff6584)" d="M29.888 2.472c0 0.001 0 0.003 0 0.004 0 0.648-0.25 1.237-0.66 1.677l0.001-0.002c-0.032 0.035-0.066 0.069-0.101 0.102-1.162-0.903-2.471-1.793-3.837-2.598l-0.174-0.095c0.017-0.044 0.036-0.087 0.056-0.129 0.403-0.852 1.255-1.431 2.242-1.431 1.365 0 2.472 1.107 2.472 2.472v0z"></path>
<path fill="#f2f2f2" style="fill: var(--color1, #f2f2f2)" d="M31.893 7.503l-0.002 0.026q-2.439-0.168-4.877-0.337c-1.174-0.081-2.39-0.173-3.427-0.729-0.394-0.211-0.778-0.492-1.224-0.512-0.554-0.025-1.038 0.363-1.418 0.767-2.247 2.394-2.898 6.054-5.419 8.156 1.802-4.411 3.705-8.137 5.877-11.681l-0.199 0.35c0.404-0.669 0.884-1.383 1.634-1.602 0.716-0.208 1.449 0.096 2.108 0.486 0.141 0.084 0.279 0.172 0.412 0.259q1.524 0.998 2.998 2.071 1.81 1.317 3.538 2.744z"></path>
<path fill="#e4e4e4" style="fill: var(--color11, #e4e4e4)" d="M37.151 12.579c-1.791-2.51-3.771-4.699-5.974-6.641l-0.042-0.036q-0.974-0.856-2.006-1.649c-1.162-0.903-2.471-1.793-3.837-2.598l-0.174-0.095q-0.686-0.398-1.387-0.764c-0.364-0.189-0.751-0.362-1.17-0.335-0.307 0.027-0.584 0.14-0.812 0.313l0.004-0.003c-0.515 0.376-0.856 0.964-1.137 1.524-0.246 0.491-0.475 0.992-0.709 1.49-0.099 0.212-0.199 0.423-0.302 0.633q-0.538 1.104-1.1 2.197-0.725 1.408-1.493 2.794-1.612 2.914-3.402 5.723-2.631 4.129-5.629 8.007c-0.245 0.316-0.346 0.39-0.595 0.704-0.057 0.073-0.16-0.030-0.103-0.103 2.074-2.621 3.879-5.097 5.7-7.901q2.059-3.171 3.891-6.483 0.588-1.062 1.152-2.138 0.912-1.741 1.761-3.515 0.224-0.467 0.443-0.937c0.465-0.995 1.141-2.475 2.448-2.455 0.384 0.006 0.741 0.161 1.077 0.334 0.343 0.176 0.679 0.364 1.015 0.554q0.202 0.114 0.401 0.231 0.792 0.46 1.56 0.959 1.282 0.831 2.496 1.762 0.576 0.442 1.135 0.904c2.343 1.948 4.402 4.102 6.195 6.468l0.070 0.097q0.33 0.438 0.646 0.887c0.054 0.076-0.072 0.149-0.125 0.073z"></path>
<path fill="#e4e4e4" style="fill: var(--color11, #e4e4e4)" d="M31.264 5.171c0.076-0.085 0.151-0.169 0.228-0.254 0.603-0.666 1.249-1.325 2.077-1.707 0.369-0.18 0.803-0.287 1.26-0.293l0.002-0c0.452 0.001 0.893 0.12 1.31 0.286 0.197 0.079 0.39 0.168 0.58 0.264 0.217 0.109 0.43 0.226 0.643 0.343q0.598 0.331 1.18 0.691 1.158 0.716 2.244 1.541 0.563 0.428 1.103 0.884 0.502 0.424 0.984 0.87c0.069 0.063 0.171-0.039 0.103-0.103-0.085-0.079-0.17-0.157-0.256-0.235q-0.363-0.328-0.737-0.643-0.683-0.576-1.4-1.107-1.116-0.827-2.31-1.542-0.596-0.357-1.209-0.684c-0.123-0.066-0.248-0.13-0.374-0.191-0.248-0.129-0.542-0.252-0.848-0.35l-0.042-0.012c-0.291-0.097-0.626-0.154-0.974-0.154-0.13 0-0.259 0.008-0.385 0.023l0.015-0.002c-0.465 0.069-0.883 0.22-1.257 0.438l0.017-0.009c-0.812 0.454-1.442 1.156-2.056 1.841-0.062 0.070 0.040 0.173 0.103 0.103z"></path>
<path fill="#e4e4e4" style="fill: var(--color11, #e4e4e4)" d="M14.618 12.077l-2.913-1.066c-0.315-0.115-0.629-0.246-0.954-0.329-0.124-0.037-0.266-0.058-0.413-0.058-0.161 0-0.316 0.025-0.461 0.072l0.011-0.003c-0.261 0.098-0.486 0.24-0.675 0.419l0.001-0.001c-0.197 0.182-0.378 0.375-0.545 0.58l-0.008 0.010c-0.21 0.253-0.418 0.508-0.626 0.763q-1.289 1.577-2.562 3.167t-2.528 3.194q-1.258 1.608-2.5 3.229-0.152 0.199-0.304 0.397c-0.056 0.073-0.182 0.001-0.125-0.073q1.25-1.638 2.518-3.262 1.271-1.628 2.559-3.242t2.594-3.215q0.325-0.399 0.652-0.796c0.184-0.224 0.365-0.45 0.566-0.658 0.37-0.382 0.831-0.72 1.384-0.729 0.325-0.005 0.639 0.098 0.941 0.207 0.325 0.118 0.65 0.238 0.975 0.357l2.45 0.896c0.087 0.032 0.049 0.172-0.039 0.14z"></path>
<path fill="#f2f2f2" style="fill: var(--color1, #f2f2f2)" d="M33.825 4.049c0.989-0.508 2.256-0.409 3.165 0.226-2.038 0.354-3.768 0.77-5.456 1.282l0.32-0.083c0.701-0.411 1.249-1.054 1.971-1.425z"></path>
<path fill="#f2f2f2" style="fill: var(--color1, #f2f2f2)" d="M37 4.273l0.19 0.155c-0.064-0.054-0.131-0.105-0.2-0.153 0.003-0.001 0.007-0.001 0.010-0.002z"></path>
<path fill="#f2f2f2" style="fill: var(--color1, #f2f2f2)" d="M9.287 12.084c0.192-0.233 0.399-0.477 0.685-0.572l0.268 0.011c-2.099 3.665-4.804 6.74-8.011 9.189l-0.074 0.054q3.566-4.341 7.132-8.681z"></path>
<path fill="#ccc" style="fill: var(--color12, #ccc)" d="M29.359 25.209l-1.62-0.715v-0.615l0.578-0.003c0.187-0.001 0.346-0.122 0.404-0.29l0.001-0.003 0.406-1.217c0.014-0.040 0.022-0.087 0.022-0.136 0-0.237-0.192-0.429-0.429-0.429h-0.981v-0.572h1.231c0.203 0 0.373-0.141 0.417-0.33l0.001-0.003 0.279-1.215c0.007-0.029 0.011-0.062 0.011-0.096 0-0.237-0.192-0.429-0.429-0.429 0 0 0 0 0 0h-1.511v-0.143c0-0.158-0.128-0.286-0.286-0.286s-0.286 0.128-0.286 0.286v0 0.143h-10.128v-0.143c0-0.158-0.128-0.286-0.286-0.286s-0.286 0.128-0.286 0.286v0 0.143h-1.201c0 0 0 0 0 0-0.237 0-0.429 0.192-0.429 0.429 0 0.034 0.004 0.067 0.011 0.099l-0.001-0.003 0.279 1.215c0.045 0.192 0.215 0.333 0.418 0.333h0.921v0.572h-0.671c-0.237 0-0.429 0.192-0.429 0.429 0 0.047 0.008 0.092 0.022 0.135l-0.001-0.003 0.414 1.285c0.057 0.174 0.218 0.297 0.408 0.297 0.001 0 0.002 0 0.003 0h-0l0.255-0.001v0.551l-1.311 0.715c0 0 0 0 0 0-0.237 0-0.429 0.192-0.429 0.429v0c0 0.237 0.192 0.429 0.429 0.429h1.311v3.146c0 0.158 0.128 0.286 0.286 0.286s0.286-0.128 0.286-0.286v0-3.146h10.128v3.146c0 0.158 0.128 0.286 0.286 0.286s0.286-0.128 0.286-0.286v0-3.146h1.62c0.237 0 0.429-0.192 0.429-0.429v0c0 0 0 0 0 0 0-0.237-0.192-0.429-0.429-0.429 0 0 0 0 0 0v0zM17.038 21.229h10.128v0.572h-10.128zM17.038 24.494v-0.555l10.128-0.057v0.611z"></path>
<path fill="#f2f2f2" style="fill: var(--color1, #f2f2f2)" d="M5.19 23.995l0.459-1.493c-0.541-0.594-1.217-1.056-1.98-1.339l-0.035-0.011c0.754 1.249 0.023 2.878 0.328 4.304 0.207 0.914 0.806 1.658 1.606 2.058l0.018 0.008 0.696 0.862c0.422-0.725 0.671-1.595 0.671-2.524 0-0.615-0.109-1.204-0.309-1.749l0.011 0.035c-0.156-0.417-0.348-0.777-0.579-1.108l0.011 0.016c-0.414 0.486-0.896 0.941-0.896 0.941z"></path>
<path fill="#f2f2f2" style="fill: var(--color1, #f2f2f2)" d="M2.668 24.186l-0.256-1.541c-0.542-0.217-1.17-0.343-1.827-0.343-0.204 0-0.405 0.012-0.602 0.036l0.024-0.002c1.232 0.782 1.304 2.565 2.213 3.706 0.56 0.689 1.408 1.125 2.357 1.125 0.006 0 0.012-0 0.019-0h-0.001l1.007 0.461c0.005-0.087 0.008-0.19 0.008-0.292 0-1.44-0.599-2.741-1.562-3.665l-0.002-0.002c-0.29-0.273-0.617-0.514-0.971-0.711l-0.025-0.013c-0.153 0.62-0.383 1.242-0.383 1.242z"></path>
<path fill="#f2f2f2" style="fill: var(--color1, #f2f2f2)" d="M38.876 17.672l-1.003-1.198c0.287-0.801 0.743-1.481 1.328-2.024l0.003-0.003c-0.209 1.444 1.097 2.66 1.371 4.093 0.032 0.164 0.050 0.354 0.050 0.547 0 0.762-0.281 1.459-0.746 1.992l0.003-0.004-0.306 1.065c-1.148-0.882-1.904-2.224-1.991-3.746l-0.001-0.013c-0.003-0.066-0.005-0.144-0.005-0.222 0-0.356 0.038-0.703 0.11-1.037l-0.006 0.032c0.57 0.287 1.192 0.518 1.192 0.518z"></path>
<path fill="#f2f2f2" style="fill: var(--color1, #f2f2f2)" d="M41.273 16.868l-0.364-1.519c0.571-0.555 1.276-0.976 2.060-1.211l0.036-0.009c-0.831 1.199-0.204 2.87-0.598 4.275-0.264 0.893-0.903 1.602-1.731 1.952l-0.020 0.007-0.749 0.817c-0.329-0.654-0.521-1.425-0.521-2.241 0-0.727 0.153-1.419 0.428-2.044l-0.013 0.033c0.18-0.402 0.393-0.749 0.644-1.064l-0.008 0.010c0.382 0.511 0.835 0.995 0.835 0.995z"></path>
<path fill="#ffb6b6" style="fill: var(--color13, #ffb6b6)" d="M21.471 30.785l-0.659 0.318-1.54-2.39 0.973-0.469 1.226 2.542z"></path>
<path fill="#2f2e41" style="fill: var(--color9, #2f2e41)" d="M21.545 21.164l-0.586 0.884s-3.482 2.306-3.337 3.164c0.051 0.3 0.272 0.931 0.556 1.635 0.087 0.216 0.498 0.646 0.594 0.868 0.486 1.122 0.727 2.020 0.961 2.14 0.259 0.134 0.232 0.028 0.391 0.273l0.919-0.345s0.143-0.321 0.214-0.48-0.040-0.238-0.040-0.238-0.135 0.072-0.111-0.079 0.015-0.199-0.040-0.238-0.271-0.444-0.271-0.444c-0.185-0.268-0.344-0.576-0.462-0.904l-0.009-0.028c-0.051-0.145-0.046-0.492-0.115-0.632-0.145-0.295-0.196-0.513-0.43-0.666 0 0 2.944-1.43 3.221-2.115s-0.008-2.94-0.008-2.94z"></path>
<path fill="#2f2e41" style="fill: var(--color9, #2f2e41)" d="M21.821 31.132l-2.228 0.868-0.011-0.028c-0.040-0.1-0.063-0.216-0.063-0.338 0-0.392 0.243-0.728 0.587-0.865l0.006-0.002 0.287-0.467 0.88 0.013 0.195-0.076z"></path>
<path fill="#ffb6b6" style="fill: var(--color13, #ffb6b6)" d="M27.019 27.305l1.077-0.081-0.134 2.84-0.73 0.055-0.213-2.814z"></path>
<path fill="#2f2e41" style="fill: var(--color9, #2f2e41)" d="M21.102 21.946c-0.248-1.090 0.45 2.16 1.174 2.768 0.285 0.239 1.476-0.008 2.462 0.067 0.643 0.056 1.234 0.225 1.771 0.486l-0.030-0.013c-0.157 0.287 0.007 0.714 0.038 1.099 0.056 0.702 0.112 1.347 0.112 1.347s-0.001 0.459-0.031 0.52-0.015 0.107 0.076 0.229-0.061 0.122-0.061 0.122-0.061 0.122 0.076 0.229 0.464 0.419 0.464 0.419l0.875-0.078c0.025-0.291 0.101-0.329 0.267-0.569 0.158-0.227 0.122-1.591 0.010-2.87-0.008-0.087 0.113-0.36 0.105-0.445-0.082-0.859-0.324-1.454-0.431-1.775-0.074-0.222-0.427-0.413-0.905-0.574-0.073-0.025-0.149-0.048-0.227-0.072-1.317-0.391-3.3-0.583-3.3-0.583l-1.084-0.964z"></path>
<path fill="#2f2e41" style="fill: var(--color9, #2f2e41)" d="M27.133 29.963l0.198-0.066 0.669-0.571 0.519 0.177c0.087-0.030 0.188-0.047 0.293-0.047 0.409 0 0.757 0.264 0.881 0.631l0.002 0.007 0.010 0.029-2.269 0.754z"></path>
<path fill="#b21741" style="fill: var(--color3, #b21741)" d="M22.101 15.669l-0.651 0.496-0.785 0.241s-0.325 4.567-0.617 4.86-0.029 0.3-0.087 0.68-0.202 1.159-0.202 1.159c1.975 1.045 3.677 1.073 5.045-0.15 0.006-0.023 0.009-0.050 0.009-0.077 0-0.135-0.079-0.252-0.193-0.307l-0.002-0.001c-0.255-0.135 0.235-0.765 0.027-0.871s0.085-1.020 0.085-1.020l-0.192-1.908 0.152-0.305-0.37-1.866-0.642-0.235-0.256-0.618z"></path>
<path fill="#ffb6b6" style="fill: var(--color13, #ffb6b6)" d="M24.056 14.105c0 0.711-0.577 1.288-1.288 1.288s-1.288-0.577-1.288-1.288c0-0.711 0.577-1.288 1.288-1.288s1.288 0.577 1.288 1.288z"></path>
<path fill="#ffb6b6" style="fill: var(--color13, #ffb6b6)" d="M21.693 23.786c0-0.006 0-0.013 0-0.020 0-0.312-0.253-0.565-0.565-0.565-0.028 0-0.056 0.002-0.082 0.006l0.003-0-0.918-1.784-0.511 0.909 0.95 1.555c0.056 0.259 0.283 0.451 0.555 0.451 0.308 0 0.558-0.245 0.567-0.55l0-0.001z"></path>
<path fill="#b21741" style="fill: var(--color3, #b21741)" d="M20.148 23.35l-1.969-3.051 0.006-0.014c0.007-0.016 0.453-0.979 0.885-1.861 0.067-0.136 0.133-0.27 0.197-0.398q0.042-0.083 0.082-0.163c0.181-0.358 0.34-0.653 0.435-0.794 0.209-0.314 0.513-0.549 0.871-0.666l0.012-0.003 0.009-0.002 0.009 0.004c0.306 0.132 0.517 0.431 0.517 0.779 0 0.053-0.005 0.106-0.014 0.156l0.001-0.005c-0.184 0.96-0.573 1.808-1.122 2.527l0.011-0.015-0.319 0.421 1.109 2.411z"></path>
<path fill="#3f3d56" style="fill: var(--color2, #3f3d56)" d="M25.274 24.488v0.082c-0 0.1-0.081 0.181-0.181 0.181h-6.020c-0.1-0-0.181-0.081-0.181-0.181v0-0.082c0-0.1 0.081-0.181 0.181-0.181h0.107c-0.004-0.012-0.006-0.026-0.006-0.041v-3.073c0-0.084 0.068-0.152 0.152-0.152h5.514c0.084 0 0.152 0.068 0.152 0.152v0 3.073c0 0 0 0 0 0 0 0.014-0.002 0.028-0.006 0.041l0-0.001h0.107c0.1 0 0.181 0.081 0.181 0.181v0z"></path>
<path fill="#fff" style="fill: var(--color5, #fff)" d="M22.202 22.778c0 0 0 0 0 0-0.19 0-0.344-0.154-0.344-0.344s0.154-0.344 0.344-0.344c0.19 0 0.344 0.154 0.344 0.344v0c-0 0.19-0.154 0.344-0.344 0.344h-0zM22.202 22.149c0 0 0 0 0 0-0.157 0-0.285 0.127-0.285 0.285s0.127 0.285 0.285 0.285c0.157 0 0.285-0.127 0.285-0.285 0 0 0 0 0 0v0c-0-0.157-0.128-0.285-0.285-0.285h-0z"></path>
<path fill="#fff" style="fill: var(--color5, #fff)" d="M22.398 22.315c0 0.174-0.141 0.314-0.314 0.314s-0.314-0.141-0.314-0.314c0-0.174 0.141-0.314 0.314-0.314s0.314 0.141 0.314 0.314z"></path>
<path fill="#ffb6b6" style="fill: var(--color13, #ffb6b6)" d="M26.917 11.655c-0.086 0.099-0.139 0.229-0.139 0.371 0 0.205 0.109 0.384 0.272 0.483l0.003 0.001-0.41 1.964 0.969-0.384 0.241-1.806c0.039-0.075 0.063-0.164 0.063-0.259 0-0.313-0.254-0.568-0.568-0.568-0.172 0-0.326 0.076-0.43 0.197l-0.001 0.001z"></path>
<path fill="#b21741" style="fill: var(--color3, #b21741)" d="M27.843 12.967l-0.392 3.61-0.014 0.007c-0.011 0.006-0.508 0.249-1.118 0.539-0.103 0.049-0.088 0.261-0.196 0.312-0.074 0.035-0.27-0.092-0.344-0.057-0.666 0.312-1.34 0.615-1.609 0.697-0.15 0.049-0.324 0.078-0.503 0.078-0.217 0-0.425-0.042-0.616-0.117l0.011 0.004-0.009-0.004-0.004-0.008c-0.063-0.115-0.1-0.252-0.1-0.398 0-0.256 0.114-0.485 0.293-0.64l0.001-0.001c0.679-0.58 1.501-1.014 2.404-1.243l0.041-0.009 0.513-0.126 0.657-2.572z"></path>
<path fill="#3f3d56" style="fill: var(--color2, #3f3d56)" d="M25.648 11.617l0.148 1.339c0.021 0.067 0.083 0.115 0.156 0.115 0 0 0 0 0 0h0.68c0 0 0 0 0 0 0.073 0 0.135-0.048 0.156-0.114l0-0.001 0.122-1.026c0.032 0.016 0.069 0.025 0.109 0.025 0.137 0 0.248-0.111 0.248-0.248s-0.111-0.248-0.248-0.248c-0.016 0-0.032 0.002-0.047 0.004l0.002-0c-0.030-0.035-0.074-0.057-0.124-0.057-0 0-0 0-0 0h-1.046c-0.090 0-0.163 0.073-0.163 0.163 0 0.017 0.003 0.034 0.008 0.049l-0-0.001zM26.932 11.86l0.075-0.243c0.005-0.014 0.007-0.031 0.007-0.048 0-0.014-0.002-0.027-0.005-0.040l0 0.001c0.003-0 0.006-0.001 0.009-0.001 0.098 0 0.177 0.079 0.177 0.177s-0.079 0.177-0.177 0.177v0c-0.032-0-0.062-0.009-0.088-0.024l0.001 0z"></path>
<path fill="#2f2e41" style="fill: var(--color9, #2f2e41)" d="M23.817 12.998c-0.106-0.308-0.633-0.522-1.488-0.552s-1.072 0.978-1.072 0.978c-0.571 0.463 0.609 1.703 0.667 1.658l-0.026-0.233c-0.043-0.386-0.223-0.687 0.007-1.089l0.221 0.003q0.427 0.082 0.855 0.164l-0.337-0.297 0.009-0.015c0.133 0.071 0.289 0.121 0.454 0.139l0.006 0.001c0.181 0.011 0.379-0.062 0.466-0.221 0.022-0.041 0.037-0.089 0.042-0.14l0-0.001c0.244 0.098 0.356 0.399 0.356 0.399s-0.054-0.486-0.16-0.794z"></path>
</symbol>
<symbol id="icon-undraw_aircraft_usu4" viewBox="0 0 75 32">
<path fill="#e6e6e6" style="fill: var(--color1, #e6e6e6)" d="M46.072 32h-16.776c-0.474 0-0.86-0.386-0.86-0.86v-30.279c0-0.474 0.386-0.86 0.86-0.86h16.776c0.474 0 0.86 0.386 0.86 0.86v30.279c0 0.474-0.386 0.86-0.86 0.86zM35.853 0.144c-4.017 0-7.274 3.257-7.274 7.274v23.722c0 0.396 0.321 0.717 0.717 0.717h16.776c0.396 0 0.717-0.321 0.717-0.717v-30.279c0-0.396-0.321-0.717-0.717-0.717h-10.219z"></path>
<path fill="#e6e6e6" style="fill: var(--color1, #e6e6e6)" d="M46.845 7.979c0 0.051 0.057 0.092 0.129 0.092h22.165c0.072 0 0.129-0.041 0.129-0.092s-0.058-0.092-0.129-0.092h-22.165c-0.072 0-0.129 0.041-0.129 0.092v0z"></path>
<path fill="#3f3d56" style="fill: var(--color2, #3f3d56)" d="M28.819 21.184l0.219 5.813h-0.534v0.658h1.492v-0.658h-0.435l0.031-5.813h-0.774z"></path>
<path fill="#3f3d56" style="fill: var(--color2, #3f3d56)" d="M28.243 26.065v0c0.227 0 0.411 0.184 0.411 0.411v1.7c0 0.227-0.184 0.411-0.411 0.411v0c-0.227 0-0.411-0.184-0.411-0.411v-1.7c0-0.227 0.184-0.411 0.411-0.411z"></path>
<path fill="#3f3d56" style="fill: var(--color2, #3f3d56)" d="M30.327 26.065v0c0.227 0 0.411 0.184 0.411 0.411v1.7c0 0.227-0.184 0.411-0.411 0.411v0c-0.227 0-0.411-0.184-0.411-0.411v-1.7c0-0.227 0.184-0.411 0.411-0.411z"></path>
<path fill="#d92975" style="fill: var(--color3, #d92975)" d="M33.672 17.562l-8.445-0.384 1.316-0.603 7.404 0.11-0.274 0.877z"></path>
<path fill="#d92975" style="fill: var(--color3, #d92975)" d="M0 18.415l1.020-0.384 31.665 0.823 1.316-0.603-0.548 3.729-33.453-3.565z"></path>
<path fill="#3f3d56" style="fill: var(--color2, #3f3d56)" d="M8.144 20.581l0.156-1.282 25.153 2.68-0.137 1.892-25.172-3.29z"></path>
<path fill="#3f3d56" style="fill: var(--color2, #3f3d56)" d="M27.667 21.596c0 1.53-1.166 2.769-2.605 2.769s-2.605-1.24-2.605-2.769c0-1.53 1.166-2.769 2.605-2.769s2.605 1.24 2.605 2.769z"></path>
<path fill="#d92975" style="fill: var(--color3, #d92975)" d="M26.982 21.102c0 1.060-0.859 1.919-1.919 1.919s-1.919-0.859-1.919-1.919c0-1.060 0.859-1.919 1.919-1.919s1.919 0.859 1.919 1.919z"></path>
<path fill="#3f3d56" style="fill: var(--color2, #3f3d56)" d="M46.478 21.184l-0.219 5.813h0.534v0.658h-1.492v-0.658h0.435l-0.031-5.813h0.774z"></path>
<path fill="#3f3d56" style="fill: var(--color2, #3f3d56)" d="M47.053 26.065v0c0.227 0 0.411 0.184 0.411 0.411v1.7c0 0.227-0.184 0.411-0.411 0.411v0c-0.227 0-0.411-0.184-0.411-0.411v-1.7c0-0.227 0.184-0.411 0.411-0.411z"></path>
<path fill="#3f3d56" style="fill: var(--color2, #3f3d56)" d="M44.969 26.065v0c0.227 0 0.411 0.184 0.411 0.411v1.7c0 0.227-0.184 0.411-0.411 0.411v0c-0.227 0-0.411-0.184-0.411-0.411v-1.7c0-0.227 0.184-0.411 0.411-0.411z"></path>
<path fill="#d92975" style="fill: var(--color3, #d92975)" d="M41.624 17.562l8.446-0.384-1.316-0.603-7.404 0.11 0.274 0.877z"></path>
<path fill="#d92975" style="fill: var(--color3, #d92975)" d="M38.601 16.381l-0.384-8.445-0.603 1.316 0.11 7.403 0.877-0.274z"></path>
<path fill="#d92975" style="fill: var(--color3, #d92975)" d="M75.296 18.415l-1.020-0.384-31.665 0.823-1.316-0.603 0.548 3.729 33.453-3.565z"></path>
<path fill="#3f3d56" style="fill: var(--color2, #3f3d56)" d="M67.153 20.581l-0.156-1.282-25.153 2.68 0.137 1.892 25.172-3.29z"></path>
<path fill="#3f3d56" style="fill: var(--color2, #3f3d56)" d="M52.839 21.596c0 1.53-1.166 2.769-2.605 2.769s-2.605-1.24-2.605-2.769c0-1.53 1.166-2.769 2.605-2.769s2.605 1.24 2.605 2.769z"></path>
<path fill="#d92975" style="fill: var(--color3, #d92975)" d="M52.154 21.102c0 1.060-0.859 1.919-1.919 1.919s-1.919-0.859-1.919-1.919c0-1.060 0.859-1.919 1.919-1.919s1.919 0.859 1.919 1.919z"></path>
<path fill="#d92975" style="fill: var(--color3, #d92975)" d="M42.433 16.51l-0.124 0.917-0.065 4.938c-0.005 0.367-0.049 0.73-0.133 1.083-0.24 1.026-0.801 1.958-1.63 2.635-0.752 0.614-1.777 1.079-3.135 0.997-3.62-0.219-3.939-3.3-3.939-3.3l0.137-5.586 0.019-0.766 0.165-1.382s0.439-3.894 4.497-3.784c4.058 0.11 4.209 4.249 4.209 4.249z"></path>
<path fill="#e6e6e6" style="fill: var(--color1, #e6e6e6)" d="M34.605 15.223l0.823-1.316 1.042-0.329h3.565l0.877 0.329 0.796 1.316-1.454-0.658h-4.080l-1.569 0.658z"></path>
<path fill="#3f3d56" style="fill: var(--color2, #3f3d56)" d="M37.621 24.685l0.141 3.729h-0.343v0.422h0.957v-0.422h-0.279l0.020-3.729h-0.496z"></path>
<path fill="#3f3d56" style="fill: var(--color2, #3f3d56)" d="M37.252 27.816v0c0.146 0 0.264 0.118 0.264 0.264v1.091c0 0.146-0.118 0.264-0.264 0.264v0c-0.146 0-0.264-0.118-0.264-0.264v-1.091c0-0.146 0.118-0.264 0.264-0.264z"></path>
<path fill="#3f3d56" style="fill: var(--color2, #3f3d56)" d="M38.589 27.816v0c0.146 0 0.264 0.118 0.264 0.264v1.091c0 0.146-0.118 0.264-0.264 0.264v0c-0.146 0-0.264-0.118-0.264-0.264v-1.091c0-0.146 0.118-0.264 0.264-0.264z"></path>
<path fill="#d92975" style="fill: var(--color3, #d92975)" d="M35.843 15.497l0.758-2.728 0.146 0.041-0.758 2.728-0.146-0.041z"></path>
<path fill="#d92975" style="fill: var(--color3, #d92975)" d="M39.887 13.234l0.149-0.029 0.546 2.778-0.149 0.029-0.546-2.778z"></path>
<path fill="#d92975" style="fill: var(--color3, #d92975)" d="M56.633 7.862c0 0.544-0.441 0.985-0.985 0.985s-0.985-0.441-0.985-0.985c0-0.544 0.441-0.985 0.985-0.985s0.985 0.441 0.985 0.985z"></path>
<path fill="#d92975" style="fill: var(--color3, #d92975)" d="M29.369 11.086c0 0.544-0.441 0.985-0.985 0.985s-0.985-0.441-0.985-0.985c0-0.544 0.441-0.985 0.985-0.985s0.985 0.441 0.985 0.985z"></path>
<path fill="#e6e6e6" style="fill: var(--color1, #e6e6e6)" d="M6.080 29.574c0 0.051 0.058 0.092 0.129 0.092h22.165c0.072 0 0.129-0.041 0.129-0.092s-0.058-0.092-0.129-0.092h-22.165c-0.072 0-0.129 0.041-0.129 0.092z"></path>
<path fill="#d92975" style="fill: var(--color3, #d92975)" d="M15.868 29.456c0 0.544-0.441 0.985-0.985 0.985s-0.985-0.441-0.985-0.985c0-0.544 0.441-0.985 0.985-0.985s0.985 0.441 0.985 0.985z"></path>
</symbol>
</defs>
</svg>
